<?xml version="1.0" encoding="UTF-8"?>
<svg width="597px" height="261px" viewBox="0 0 597 261" version="1.1" xmlns="http://www.w3.org/2000/svg"
     xmlns:xlink="http://www.w3.org/1999/xlink">
    <!-- Generator: Sketch 52.3 (67297) - http://www.bohemiancoding.com/sketch -->
    <title>Group 728</title>
    <desc>Created with Sketch.</desc>
    <defs>
        <polygon id="path-1"
                 points="0.504817292 0.052836046 592.519039 0.052836046 592.519039 248.870914 0.504817292 248.870914"></polygon>
        <polygon id="path-3"
                 points="0.730654022 0.78614519 356.910184 0.78614519 356.910184 117.892397 0.730654022 117.892397"></polygon>
        <polygon id="path-5"
                 points="0.635612649 0.0837111102 595.55167 0.0837111102 595.55167 260.354682 0.635612649 260.354682"></polygon>
        <polygon id="path-7"
                 points="0.562709991 0.623297864 580.944779 0.623297864 580.944779 256.232103 0.562709991 256.232103"></polygon>
    </defs>
    <g id="Page-1" stroke="none" stroke-width="1" fill="none" fill-rule="evenodd">
        <g id="1440" transform="translate(-20.000000, -2500.000000)">
            <g id="Group-728"
               transform="translate(318.500000, 2630.500000) scale(-1, 1) translate(-318.500000, -2630.500000) translate(20.000000, 2500.000000)">
                <g id="Group-704" transform="translate(4.000000, 11.000000)">
                    <mask id="mask-2" fill="white">
                        <use xlink:href="#path-1"></use>
                    </mask>
                    <g id="Clip-703"></g>
                    <path d="M588.248214,210.707943 L363.814706,339.594816 C360.967964,341.234491 357.195662,342.063499 353.439954,342.043324 L353.439954,331.09015 C349.651059,331.09015 345.843726,330.279483 342.978547,328.623301 L1.2109715,132.348362 C0.963909716,132.208972 0.71684793,132.049406 0.504817292,131.910015 C0.751879079,131.732109 1.03581576,131.55787 1.31975244,131.398305 L5.69127106,128.880102 L70.1928348,91.8406924 L225.751417,2.50959707 C231.452275,-0.766084294 240.783467,-0.766084294 246.484326,2.50959707 L402.02447,91.8406924 L499.068128,147.584132 L527.874794,164.123939 L583.734727,196.213144 L588.248214,198.801043 C588.497119,198.942267 588.727587,199.083492 588.939618,199.241224 C593.932479,202.516905 593.702011,207.573486 588.248214,210.707943"
                          id="Fill-702" fill="#47B7BF" mask="url(#mask-2)"></path>
                </g>
                <g id="Group-707" transform="translate(0.000000, 142.000000)">
                    <mask id="mask-4" fill="white">
                        <use xlink:href="#path-3"></use>
                    </mask>
                    <g id="Clip-706"></g>
                    <path d="M356.910184,200.212871 L356.910184,211.181442 C353.158614,211.181442 349.425469,210.369772 346.576781,208.729903 L5.00510401,12.1936059 C-0.412193708,9.07363233 -0.675688121,4.08240919 4.18882412,0.78614519 C4.40072522,0.927544816 4.64763607,1.08547167 4.89638954,1.2268713 L346.453326,197.742969 C349.318597,199.403037 353.121761,200.212871 356.910184,200.212871"
                          id="Fill-705" fill="#AFE3E1" mask="url(#mask-4)"></path>
                </g>
                <path d="M16,150 L1.03439122,148.295124 L1,139 L1.01810064,139 C1.32943164,140.58589 2.46072161,142.138037 4.40654036,143.40071 C4.61469772,143.53568 4.85724629,143.690184 5.10160492,143.825153 L16,150 Z"
                      id="Fill-708" fill="#AFE3E1"></path>
                <path d="M596,205.113051 L596,217 L583.772231,215.597884 L575.139455,214.597416 L549.357215,211.634351 L236.019712,175.590113 L92.9220145,159.128031 L29.2218974,151.799785 L16.2515438,150.308211 L5.15699925,143.962176 C4.90824265,143.823425 4.66132868,143.664591 4.44942491,143.52584 C2.46858528,142.227788 1.31693434,140.632151 1,139 L8.96021133,139.894579 L182.122447,159.128031 L330.278196,175.590113 L588.568627,204.289673 L596,205.113051 Z"
                      id="Fill-710" fill="#47B7BF"></path>
                <g id="Group-714">
                    <mask id="mask-6" fill="white">
                        <use xlink:href="#path-5"></use>
                    </mask>
                    <g id="Clip-713"></g>
                    <path d="M595.55167,205.164238 C595.55167,207.104607 594.402226,209.063351 592.084917,210.634388 C591.836239,210.79241 591.572824,210.968807 591.289147,211.128667 L583.327771,215.716831 L367.062744,340.271597 C364.2315,341.877546 360.516069,342.708083 356.802479,342.72462 C353.015207,342.72462 349.213198,341.914296 346.348797,340.25506 L15.9866724,150.005215 L4.89563866,143.618168 C4.64696077,143.478521 4.40012494,143.318661 4.18828823,143.179013 C2.20807543,141.872572 1.05678891,140.266622 0.739954867,138.623924 C0.224178509,136.152526 1.62230085,133.57823 4.89563866,131.691148 L229.122042,2.54638077 C234.817686,-0.737178777 244.123765,-0.737178777 249.81941,2.54638077 L591.289147,199.19981 C594.13697,200.840671 595.55167,202.992348 595.55167,205.164238"
                          id="Fill-712" fill="#FFFFFF" mask="url(#mask-6)"></path>
                </g>
                <g id="Group-717" transform="translate(7.000000, 4.000000)">
                    <mask id="mask-8" fill="white">
                        <use xlink:href="#path-7"></use>
                    </mask>
                    <g id="Clip-716"></g>
                    <path d="M572.565383,207.691741 L354.54635,333.017959 C351.698258,334.672467 347.044778,334.672467 344.196686,333.017959 L126.177652,207.691741 L63.176977,171.47783 L34.3957748,154.93642 L2.71121393,136.723994 C-0.153457987,135.065817 -0.153457987,132.407966 2.71121393,130.771801 L57.6410676,99.1894104 L226.942257,1.85042175 C229.806928,0.214256567 234.443828,0.214256567 237.3085,1.85042175 L406.628111,99.1894104 L503.606927,154.93642 L532.371549,171.47783 L578.79213,198.16273 C581.662329,199.798895 581.662329,202.476923 578.79213,204.114923 L572.565383,207.691741 Z"
                          id="Fill-715" fill="#77D7FF" mask="url(#mask-8)"></path>
                </g>
                <path d="M511,159 L41.8300909,159 L10.1483151,140.703682 C7.28389497,139.039878 7.28389497,136.370052 10.1483151,134.724673 L65.0733404,103 L414.027866,103 L511,159 Z"
                      id="Fill-718" fill="#7EE4FF"></path>
                <path d="M586.846386,208.444309 L580.616847,212 L134.028929,212 L71,176 L540.404987,176 L586.846386,202.527275 C589.717871,204.153776 589.717871,206.815985 586.846386,208.444309"
                      id="Fill-720" fill="#7EE4FF"></path>
                <path d="M369.996108,206.068969 C367.72657,204.769649 366.41914,202.938872 366.648125,200.965152 C369.301766,177.524245 354.262618,154.579976 325.373568,138.026015 C297.50387,122.056657 260.387977,113.610161 220.849275,114.240578 C214.48386,114.339539 209.189504,111.466008 209.004838,107.820948 C208.822019,104.175888 213.843071,101.133756 220.2011,101.03846 C266.14215,100.303584 309.272594,110.120872 341.67952,128.683373 C375.260918,147.925771 392.739495,174.581074 389.650043,201.822813 C389.238239,205.462375 383.755525,208.222285 377.404882,207.985878 C374.49271,207.874089 371.898161,207.159371 369.996108,206.068969"
                      id="Fill-722" fill="#FFFFFF"></path>
                <path d="M312.286972,200.057566 C310.215446,198.871576 308.926291,197.228447 308.907795,195.425596 C308.774626,182.557787 299.981738,170.479414 284.153061,161.408243 C268.712795,152.562886 248.158449,147.527018 226.281656,147.235111 C219.915413,147.148823 214.86052,144.121428 215.002937,140.462483 C215.154602,136.810882 220.44994,133.913835 226.819882,134.001958 C254.668959,134.374646 280.83492,140.785601 300.488522,152.052507 C320.63966,163.598469 331.82405,178.97595 331.99976,195.34298 C332.040451,198.994581 326.898628,201.977915 320.526836,201.999946 C317.304873,202.00729 314.397339,201.263751 312.286972,200.057566"
                      id="Fill-724" fill="#FFFFFF"></path>
                <path d="M258.320423,189.362566 C252.070431,192.879145 241.933294,192.879145 235.687029,189.362566 C229.435173,185.845987 229.4389,180.147205 235.690756,176.636073 C241.933294,173.121309 252.05925,173.121309 258.307379,176.636073 C264.559234,180.152651 264.564825,185.849618 258.320423,189.362566"
                      id="Fill-726" fill="#FFFFFF"></path>
            </g>
        </g>
    </g>
</svg>