<?xml version="1.0" encoding="UTF-8"?>
<svg width="1521px" height="1331px" viewBox="0 0 1521 1331" version="1.1" xmlns="http://www.w3.org/2000/svg"
     xmlns:xlink="http://www.w3.org/1999/xlink">
    <!-- Generator: Sketch 52.3 (67297) - http://www.bohemiancoding.com/sketch -->
    <title>Group</title>
    <desc>Created with Sketch.</desc>
    <defs>
        <path d="M97.8331891,0 C40.8779101,0 0.100097151,46.6913375 0,97.6297502 L0,97.9593915 C0.0235522709,114.17068 4.17169598,130.802851 13.2334322,146.490245 L663.900243,1273.16894 C682.636075,1305.61212 715.370787,1321.88816 748.155548,1322 L748.841508,1322 C781.629213,1321.88816 814.363925,1305.61212 833.099757,1273.16894 L1483.76657,146.490245 C1492.8283,130.796964 1496.97645,114.158907 1497,97.9417321 L1497,97.6356366 C1496.90579,46.6913375 1456.12503,0 1399.16681,0 L97.8331891,0 Z"
              id="path-1"></path>
        <linearGradient x1="0.883971928%" y1="3.69370172%" x2="77.383624%" y2="53.6936635%" id="linearGradient-3">
            <stop stop-color="#7EE6FF" offset="0%"></stop>
            <stop stop-color="#69B3FF" offset="100%"></stop>
        </linearGradient>
    </defs>
    <g id="Page-1" stroke="none" stroke-width="1" fill="none" fill-rule="evenodd">
        <g id="1440" transform="translate(-2149.000000, -236.000000)">
            <g id="Group" transform="translate(2149.000000, 236.000000)">
                <g id="Group-3" transform="translate(24.000000, 9.000000)">
                    <g id="Clip-2">
                        <mask id="mask-2" fill="white">
                            <use xlink:href="#path-1"></use>
                        </mask>
                        <g></g>
                        <path d="M97.8331891,0 C40.8779101,0 0.100097151,46.6913375 0,97.6297502 L0,97.9593915 C0.0235522709,114.17068 4.17169598,130.802851 13.2334322,146.490245 L663.900243,1273.16894 C682.636075,1305.61212 715.370787,1321.88816 748.155548,1322 L748.841508,1322 C781.629213,1321.88816 814.363925,1305.61212 833.099757,1273.16894 L1483.76657,146.490245 C1492.8283,130.796964 1496.97645,114.158907 1497,97.9417321 L1497,97.6356366 C1496.90579,46.6913375 1456.12503,0 1399.16681,0 L97.8331891,0 Z"
                              id="Fill-1" fill="url(#linearGradient-3)" fill-rule="evenodd" mask="url(#mask-2)"></path>
                    </g>
                </g>
                <g id="Group-3-Copy" opacity="0.25" fill="url(#linearGradient-3)">
                    <path d="M97.8331891,0 C40.8779101,0 0.100097151,46.6913375 0,97.6297502 L0,97.9593915 C0.0235522709,114.17068 4.17169598,130.802851 13.2334322,146.490245 L663.900243,1273.16894 C682.636075,1305.61212 715.370787,1321.88816 748.155548,1322 L748.841508,1322 C781.629213,1321.88816 814.363925,1305.61212 833.099757,1273.16894 L1483.76657,146.490245 C1492.8283,130.796964 1496.97645,114.158907 1497,97.9417321 L1497,97.6356366 C1496.90579,46.6913375 1456.12503,0 1399.16681,0 L97.8331891,0 Z"
                          id="Fill-1"></path>
                </g>
            </g>
        </g>
    </g>
</svg>