<svg viewBox="0 0 590 516" version="1.1" xmlns="http://www.w3.org/2000/svg" xmlns:xlink="http://www.w3.org/1999/xlink" id="el_hNA9zugxc"><style>@-webkit-keyframes el_PsXJKJcOAw_fNPe0IOKM_Animation{0%{-webkit-transform: translate(0px, 0px) translate(0px, 0px) translate(15px, 0px);transform: translate(0px, 0px) translate(0px, 0px) translate(15px, 0px);}50%{-webkit-transform: translate(0px, 0px) translate(0px, 0px) translate(-15px, 0px);transform: translate(0px, 0px) translate(0px, 0px) translate(-15px, 0px);}100%{-webkit-transform: translate(0px, 0px) translate(0px, 0px) translate(15px, 0px);transform: translate(0px, 0px) translate(0px, 0px) translate(15px, 0px);}}@keyframes el_PsXJKJcOAw_fNPe0IOKM_Animation{0%{-webkit-transform: translate(0px, 0px) translate(0px, 0px) translate(15px, 0px);transform: translate(0px, 0px) translate(0px, 0px) translate(15px, 0px);}50%{-webkit-transform: translate(0px, 0px) translate(0px, 0px) translate(-15px, 0px);transform: translate(0px, 0px) translate(0px, 0px) translate(-15px, 0px);}100%{-webkit-transform: translate(0px, 0px) translate(0px, 0px) translate(15px, 0px);transform: translate(0px, 0px) translate(0px, 0px) translate(15px, 0px);}}@-webkit-keyframes el_Dx6T0QUrAR_BoR7cpw5-_Animation{0%{-webkit-transform: translate(0px, 0px) scale(0.38, 0.38) translate(0px, 0px);transform: translate(0px, 0px) scale(0.38, 0.38) translate(0px, 0px);}100%{-webkit-transform: translate(0px, 0px) scale(0.38, 0.38) translate(0px, 0px);transform: translate(0px, 0px) scale(0.38, 0.38) translate(0px, 0px);}}@keyframes el_Dx6T0QUrAR_BoR7cpw5-_Animation{0%{-webkit-transform: translate(0px, 0px) scale(0.38, 0.38) translate(0px, 0px);transform: translate(0px, 0px) scale(0.38, 0.38) translate(0px, 0px);}100%{-webkit-transform: translate(0px, 0px) scale(0.38, 0.38) translate(0px, 0px);transform: translate(0px, 0px) scale(0.38, 0.38) translate(0px, 0px);}}#el_hNA9zugxc *{-webkit-animation-duration: 8s;animation-duration: 8s;-webkit-animation-iteration-count: infinite;animation-iteration-count: infinite;-webkit-animation-timing-function: cubic-bezier(0, 0, 1, 1);animation-timing-function: cubic-bezier(0, 0, 1, 1);}#el_Dx6T0QUrAR{stroke: none;stroke-width: 1;fill: none;}#el_OMcNBXvjcj{-webkit-transform: translate(-2149px, -236px);transform: translate(-2149px, -236px);}#el_dbRKG6JmMB{-webkit-transform: translate(2149px, 236px);transform: translate(2149px, 236px);}#el_PsXJKJcOAw{-webkit-transform: translate(24px, 9px);transform: translate(24px, 9px);}#el_8cyUifUqp4{fill: url(#linearGradient-3);}#el_Itt4sXv39-{opacity: 0.25;fill: url(#linearGradient-3);}#el_Dx6T0QUrAR_BoR7cpw5-{-webkit-animation-name: el_Dx6T0QUrAR_BoR7cpw5-_Animation;animation-name: el_Dx6T0QUrAR_BoR7cpw5-_Animation;-webkit-transform: translate(0px, 0px) scale(0.38, 0.38) translate(0px, 0px);transform: translate(0px, 0px) scale(0.38, 0.38) translate(0px, 0px);}#el_PsXJKJcOAw_fNPe0IOKM{-webkit-animation-name: el_PsXJKJcOAw_fNPe0IOKM_Animation;animation-name: el_PsXJKJcOAw_fNPe0IOKM_Animation;-webkit-transform: translate(0px, 0px) translate(0px, 0px) translate(15px, 0px);transform: translate(0px, 0px) translate(0px, 0px) translate(15px, 0px);-webkit-animation-timing-function: cubic-bezier(0.42, 0, 0.58, 1);animation-timing-function: cubic-bezier(0.42, 0, 0.58, 1);}</style>
    <!-- Generator: Sketch 52.3 (67297) - http://www.bohemiancoding.com/sketch -->
    <title>Group</title>
    <desc>Created with Sketch.</desc>
    <defs>
        <path d="M97.8331891,0 C40.8779101,0 0.100097151,46.6913375 0,97.6297502 L0,97.9593915 C0.0235522709,114.17068 4.17169598,130.802851 13.2334322,146.490245 L663.900243,1273.16894 C682.636075,1305.61212 715.370787,1321.88816 748.155548,1322 L748.841508,1322 C781.629213,1321.88816 814.363925,1305.61212 833.099757,1273.16894 L1483.76657,146.490245 C1492.8283,130.796964 1496.97645,114.158907 1497,97.9417321 L1497,97.6356366 C1496.90579,46.6913375 1456.12503,0 1399.16681,0 L97.8331891,0 Z" id="path-1"/>
        <linearGradient x1="0.883971928%" y1="3.69370172%" x2="77.383624%" y2="53.6936635%" id="linearGradient-3">
            <stop stop-color="#7EE6FF" offset="0%"/>
            <stop stop-color="#69B3FF" offset="100%"/>
        </linearGradient>
    </defs>
    <g id="el_Dx6T0QUrAR_BoR7cpw5-" data-animator-group="true" data-animator-type="2"><g id="el_Dx6T0QUrAR" fill-rule="evenodd">
        <g id="el_OMcNBXvjcj">
            <g id="el_dbRKG6JmMB">
                <g id="el_PsXJKJcOAw_fNPe0IOKM" data-animator-group="true" data-animator-type="0"><g id="el_PsXJKJcOAw">
                    <g id="el_oOaS35KZrp">
                        <mask id="mask-2" fill="white">
                            <use xlink:href="#path-1"/>
                        </mask>
                        <g id="el_94k9_VHDJw"/>
                        <path d="M97.8331891,0 C40.8779101,0 0.100097151,46.6913375 0,97.6297502 L0,97.9593915 C0.0235522709,114.17068 4.17169598,130.802851 13.2334322,146.490245 L663.900243,1273.16894 C682.636075,1305.61212 715.370787,1321.88816 748.155548,1322 L748.841508,1322 C781.629213,1321.88816 814.363925,1305.61212 833.099757,1273.16894 L1483.76657,146.490245 C1492.8283,130.796964 1496.97645,114.158907 1497,97.9417321 L1497,97.6356366 C1496.90579,46.6913375 1456.12503,0 1399.16681,0 L97.8331891,0 Z" id="el_8cyUifUqp4" fill-rule="evenodd" mask="url(#mask-2)"/>
                    </g>
                </g></g>
                <g id="el_Itt4sXv39-">
                    <path d="M97.8331891,0 C40.8779101,0 0.100097151,46.6913375 0,97.6297502 L0,97.9593915 C0.0235522709,114.17068 4.17169598,130.802851 13.2334322,146.490245 L663.900243,1273.16894 C682.636075,1305.61212 715.370787,1321.88816 748.155548,1322 L748.841508,1322 C781.629213,1321.88816 814.363925,1305.61212 833.099757,1273.16894 L1483.76657,146.490245 C1492.8283,130.796964 1496.97645,114.158907 1497,97.9417321 L1497,97.6356366 C1496.90579,46.6913375 1456.12503,0 1399.16681,0 L97.8331891,0 Z" id="el_vMxDoWURqK"/>
                </g>
            </g>
        </g>
    </g></g>
</svg>