<?xml version="1.0" encoding="UTF-8"?>
<svg width="656px" height="674px" viewBox="0 0 656 674" version="1.1" xmlns="http://www.w3.org/2000/svg"
     xmlns:xlink="http://www.w3.org/1999/xlink">
    <!-- Generator: Sketch 52.3 (67297) - http://www.bohemiancoding.com/sketch -->
    <title>Group 729</title>
    <desc>Created with Sketch.</desc>
    <defs>
        <filter x="-1.9%" y="-1.8%" width="103.7%" height="103.7%" filterUnits="objectBoundingBox" id="filter-1">
            <feOffset dx="0" dy="2" in="SourceAlpha" result="shadowOffsetOuter1"></feOffset>
            <feGaussianBlur stdDeviation="2" in="shadowOffsetOuter1" result="shadowBlurOuter1"></feGaussianBlur>
            <feColorMatrix values="0 0 0 0 0   0 0 0 0 0   0 0 0 0 0  0 0 0 0.10009058 0" type="matrix"
                           in="shadowBlurOuter1" result="shadowMatrixOuter1"></feColorMatrix>
            <feMerge>
                <feMergeNode in="shadowMatrixOuter1"></feMergeNode>
                <feMergeNode in="SourceGraphic"></feMergeNode>
            </feMerge>
        </filter>
        <polygon id="path-2"
                 points="0.186610649 0.348727159 35.1751995 0.348727159 35.1751995 24.6279832 0.186610649 24.6279832"></polygon>
        <polygon id="path-4"
                 points="0.427631666 0.0448373045 501.923979 0.0448373045 501.923979 211.194853 0.427631666 211.194853"></polygon>
        <polygon id="path-6"
                 points="0.61931674 0.666307358 302.524102 0.666307358 302.524102 99.9212009 0.61931674 99.9212009"></polygon>
        <polygon id="path-8"
                 points="0.538921545 0.0709074943 504.95475 0.0709074943 504.95475 220.533429 0.538921545 220.533429"></polygon>
        <polygon id="path-10"
                 points="0.477063888 0.528886799 492.523288 0.528886799 492.523288 217.42057 0.477063888 217.42057"></polygon>
    </defs>
    <g id="Page-1" stroke="none" stroke-width="1" fill="none" fill-rule="evenodd" opacity="0.942289807">
        <g id="1440" transform="translate(-667.000000, -166.000000)">
            <g id="Group-729" filter="url(#filter-1)" transform="translate(671.000000, 168.000000)">
                <polygon id="Fill-1" fill="#B9DEAF"
                         points="218.616989 400.801578 94.6095017 329.32216 129.035386 309.060879 253.042874 380.540297"></polygon>
                <polygon id="Fill-2" fill="#B9DEAF"
                         points="218.878331 208.296505 180.959444 185.737317 218.878331 163.178129 256.797219 185.737317"></polygon>
                <polygon id="Fill-3" fill="#B9DEAF"
                         points="116.58623 299.285231 52.5608343 262.168107 101.919785 234.615558 165.942063 271.732682"></polygon>
                <polygon id="Fill-4" fill="#B9DEAF"
                         points="508.229292 393.113427 496.033527 400.149723 446.016222 429.009141 547.010452 487.278467 597.024635 458.417489 609.221961 451.379634 648 429.009141 547.010452 370.722661"></polygon>
                <polygon id="Fill-5" fill="#B9DEAF"
                         points="381.443043 460.959414 257.548088 389.521205 381.441483 318.084555 505.334878 389.522763"></polygon>
                <polygon id="Fill-6" fill="#B9DEAF"
                         points="297.938276 354.931229 174.201622 283.431958 207.395044 263.942503 331.133256 335.443332"></polygon>
                <polygon id="Fill-7" fill="#CEEDEC"
                         points="507.715425 393.281849 495.573581 400.3442 596.077622 458.703495 608.20394 451.658327"></polygon>
                <polygon id="Fill-8" fill="#768EBC"
                         points="287.582851 493.471185 278.782201 499.310034 277.070684 496.125207 285.87421 490.286359"></polygon>
                <polygon id="Fill-9" fill="#FFFFFF"
                         points="301.098494 485.199483 292.297844 491.038331 290.586327 487.855104 299.389853 482.014656"></polygon>
                <polygon id="Fill-10" fill="#FFFFFF"
                         points="314.614137 476.175807 305.812049 482.014656 304.10197 478.82983 312.904058 472.990981"></polygon>
                <polygon id="Fill-11" fill="#FFFFFF"
                         points="328.12978 469.408051 319.327692 475.2469 317.617613 472.063672 326.419701 466.223224"></polygon>
                <polygon id="Fill-12" fill="#768EBC"
                         points="12.764774 286.867621 3.978463 292.517475 2.25260718 289.145329 11.0389182 283.493799"></polygon>
                <polygon id="Fill-13" fill="#768EBC"
                         points="26.2804171 280.098189 17.4953559 285.749718 15.7682503 282.377572 24.5533115 276.726043"></polygon>
                <polygon id="Fill-14" fill="#768EBC"
                         points="12.013905 256.030349 3.15855497 261.686584 1.50173812 258.319143 10.3570881 252.662909"></polygon>
                <polygon id="Fill-15" fill="#768EBC"
                         points="26.2804171 248.511663 17.4236061 254.166855 15.7682503 250.800035 24.6221393 245.143179"></polygon>
                <polygon id="Fill-16" fill="#768EBC"
                         points="39.0451912 240.239961 30.1898412 245.895152 28.5330243 242.528333 37.3883743 236.871477"></polygon>
                <polygon id="Fill-17" fill="#768EBC"
                         points="53.3117034 233.472204 44.4548923 239.127396 42.7995365 235.760576 51.6534255 230.10372"></polygon>
                <polygon id="Fill-18" fill="#FFFFFF"
                         points="360.98059 497.054115 351.406721 490.609601 353.094445 487.278467 362.669757 493.722981"></polygon>
                <polygon id="Fill-19" fill="#FFFFFF"
                         points="376.750283 506.829763 367.174971 500.384153 368.862695 497.054115 378.438007 503.499725"></polygon>
                <polygon id="Fill-20" fill="#FFFFFF"
                         points="390.265709 514.349493 380.690614 507.903882 382.378555 504.573844 391.95365 511.019455"></polygon>
                <polygon id="Fill-21" fill="#FFFFFF"
                         points="405.281864 523.373168 395.707995 516.926991 397.39572 513.59752 406.971031 520.042034"></polygon>
                <polygon id="Fill-22" fill="#FFFFFF"
                         points="418.79895 532.396843 409.223638 525.952329 410.912805 522.621195 420.486674 529.065709"></polygon>
                <polygon id="Fill-23" fill="#FFFFFF"
                         points="434.566984 540.668546 424.991889 534.222935 426.679829 530.892897 436.254925 537.338508"></polygon>
                <polygon id="Fill-24" fill="#FFFFFF"
                         points="450.335451 548.940248 440.760139 542.494638 442.447863 539.1646 452.023175 545.61021"></polygon>
                <polygon id="Fill-25" fill="#FFFFFF"
                         points="463.851094 557.963923 454.275782 551.518313 455.964949 548.188275 465.538818 554.633885"></polygon>
                <polygon id="Fill-26" fill="#768EBC"
                         points="14.0790834 298.533258 4.50521437 292.088744 6.19293876 288.75761 15.7682503 295.202124"></polygon>
                <polygon id="Fill-27" fill="#768EBC"
                         points="28.3470381 306.804961 18.7717265 300.35935 20.4594509 297.029312 30.0347625 303.474923"></polygon>
                <polygon id="Fill-28" fill="#768EBC"
                         points="42.6133341 316.580609 33.0382387 310.134999 34.7261793 306.804961 44.3012746 313.250571"></polygon>
                <polygon id="Fill-29" fill="#768EBC"
                         points="57.6309315 324.852311 48.0556199 318.406701 49.7433443 315.076663 59.3186559 321.522273"></polygon>
                <polygon id="Fill-30" fill="#768EBC"
                         points="72.6483127 333.124014 63.0730012 326.679499 64.762168 323.348365 74.3360371 329.79288"></polygon>
                <polygon id="Fill-31" fill="#768EBC"
                         points="86.9146087 341.395716 77.3395133 334.950106 79.0274539 331.620068 88.6025492 338.065678"></polygon>
                <polygon id="Fill-32" fill="#768EBC"
                         points="101.932206 349.667418 92.3568946 343.221808 94.0446189 339.89177 103.61993 346.33738"></polygon>
                <polygon id="Fill-33" fill="#768EBC"
                         points="116.949587 357.939121 107.374276 351.492944 109.063443 348.163472 118.637312 354.607987"></polygon>
                <polygon id="Fill-34" fill="#768EBC"
                         points="270.850493 544.42841 262.053302 539.324761 263.765254 536.156708 272.565469 541.258792"></polygon>
                <polygon id="Fill-35" fill="#768EBC"
                         points="283.615514 552.700113 274.818076 547.596463 276.531294 544.42841 285.330243 549.530494"></polygon>
                <polygon id="Fill-36" fill="#768EBC"
                         points="296.380288 559.467869 287.582851 554.364219 289.296068 551.196167 298.095017 556.299817"></polygon>
                <polygon id="Fill-37" fill="#768EBC"
                         points="308.394193 566.235626 299.596756 561.133542 301.309973 557.963923 310.108922 563.067573"></polygon>
                <polygon id="Fill-38" fill="#768EBC"
                         points="322.660459 573.755355 313.863268 568.653271 315.576731 565.483653 324.375435 570.587303"></polygon>
                <polygon id="Fill-39" fill="#768EBC"
                         points="334.674364 582.027057 325.877173 576.924974 327.590636 573.755355 336.38934 578.859005"></polygon>
                <polygon id="Fill-40" fill="#FFFFFF"
                         points="348.190007 588.794814 339.392816 583.69213 341.106279 580.523112 349.904983 585.625795"></polygon>
                <polygon id="Fill-41" fill="#FFFFFF"
                         points="360.954781 595.56257 352.15759 590.459887 353.869541 587.290868 362.669757 592.393552"></polygon>
                <polygon id="Fill-42" fill="#FFFFFF"
                         points="374.470671 602.330327 365.673233 597.227643 367.38645 594.058625 376.1854 599.161308"></polygon>
                <polygon id="Fill-43" fill="#FFFFFF"
                         points="386.484576 610.602029 377.687138 605.499346 379.400355 602.330327 388.199305 607.433011"></polygon>
                <polygon id="Fill-44" fill="#FFFFFF"
                         points="399.24935 617.369786 390.451912 612.267102 392.165129 609.098083 400.964079 614.200767"></polygon>
                <polygon id="Fill-45" fill="#FFFFFF"
                         points="412.015389 624.889515 403.216686 619.786832 404.93015 616.617813 413.728853 621.720497"></polygon>
                <polygon id="Fill-46" fill="#FFFFFF"
                         points="424.778651 632.409245 415.98146 627.305595 417.694924 624.137542 426.493627 629.239626"></polygon>
                <polygon id="Fill-47" fill="#FFFFFF"
                         points="437.543425 639.177001 428.746234 634.073351 430.459698 630.905299 439.258401 636.007382"></polygon>
                <polygon id="Fill-48" fill="#768EBC"
                         points="47.1398189 418.848929 38.2943221 413.186689 39.9609922 409.825254 48.806489 415.489156"></polygon>
                <polygon id="Fill-49" fill="#768EBC"
                         points="60.655462 425.616685 51.8099652 419.954446 53.4766353 416.59301 62.3221321 422.256912"></polygon>
                <polygon id="Fill-50" fill="#768EBC"
                         points="74.1711051 433.136415 65.3256083 427.473132 66.9922785 424.11274 75.8377752 429.776023"></polygon>
                <polygon id="Fill-51" fill="#768EBC"
                         points="87.6867482 440.656144 78.8412514 434.992861 80.5079216 431.632469 89.3534183 437.295752"></polygon>
                <polygon id="Fill-52" fill="#768EBC"
                         points="101.202391 448.927847 92.3568946 443.265607 94.0235647 439.904171 102.869061 445.568074"></polygon>
                <polygon id="Fill-53" fill="#768EBC"
                         points="113.215065 456.447576 104.3708 450.785336 106.038701 447.423901 114.882966 453.087803"></polygon>
                <polygon id="Fill-54" fill="#768EBC"
                         points="127.481577 463.215333 118.637312 457.553093 120.305213 454.191657 129.149479 459.85556"></polygon>
                <polygon id="Fill-55" fill="#768EBC"
                         points="140.247582 471.487035 131.402086 465.823752 133.068756 462.46336 141.914253 468.126643"></polygon>
                <polygon id="Fill-56" fill="#768EBC"
                         points="154.514095 479.006764 145.668598 473.343481 147.335268 469.983089 156.180765 475.646372"></polygon>
                <polygon id="Fill-57" fill="#768EBC"
                         points="167.278869 486.526494 158.433372 480.864254 160.100042 477.502818 168.945539 483.166721"></polygon>
                <polygon id="Fill-58" fill="#FFFFFF"
                         points="362.086737 188.745209 353.659328 182.791128 355.742508 179.721533 364.171495 185.675614"></polygon>
                <polygon id="Fill-59" fill="#FFFFFF"
                         points="374.853089 197.016911 366.424102 191.062283 368.50886 187.993236 376.936269 193.947864"></polygon>
                <polygon id="Fill-60" fill="#FFFFFF"
                         points="386.11486 206.792559 377.687138 200.838479 379.771583 197.768884 388.199305 203.722964"></polygon>
                <polygon id="Fill-61" fill="#FFFFFF"
                         points="398.879634 214.312289 390.451912 208.357661 392.536357 205.288613 400.964079 211.243241"></polygon>
                <polygon id="Fill-62" fill="#FFFFFF"
                         points="409.391488 221.832018 400.964079 215.876328 403.048837 212.808343 411.476246 218.762423"></polygon>
                <polygon id="Fill-63" fill="#FFFFFF"
                         points="421.406971 230.10372 412.977984 224.14964 415.062742 221.080045 423.490151 227.034126"></polygon>
                <polygon id="Fill-64" fill="#FFFFFF"
                         points="433.419611 238.375423 424.991889 232.419733 427.076334 229.351747 435.504056 235.305828"></polygon>
                <polygon id="Fill-65" fill="#FFFFFF"
                         points="443.931778 246.647125 435.504056 240.693045 437.588501 237.62345 446.016222 243.57753"></polygon>
                <polygon id="Fill-66" fill="#FFFFFF"
                         points="456.696239 254.918828 448.26883 248.9642 450.353588 245.895152 458.780997 251.84978"></polygon>
                <polygon id="Fill-67" fill="#FFFFFF"
                         points="468.711722 263.19053 460.282735 257.236449 462.367493 254.166855 470.794902 260.120935"></polygon>
                <polygon id="Fill-68" fill="#FFFFFF"
                         points="480.724362 271.462232 472.29664 265.508152 474.381085 262.438557 482.808806 268.392637"></polygon>
                <polygon id="Fill-69" fill="#FFFFFF"
                         points="491.236215 278.981962 482.808806 273.027881 484.891986 269.958286 493.320973 275.912367"></polygon>
                <polygon id="Fill-70" fill="#FFFFFF"
                         points="504.751859 288.005637 496.32445 282.051557 498.409208 278.981962 506.836616 284.936042"></polygon>
                <polygon id="Fill-71" fill="#FFFFFF"
                         points="516.015207 296.277339 507.587486 290.323259 509.67193 287.253664 518.099652 293.207744"></polygon>
                <polygon id="Fill-72" fill="#FFFFFF"
                         points="509.089224 305.448039 518.951954 297.781285 521.103129 300.642153 511.238871 308.308906"></polygon>
                <polygon id="Fill-73" fill="#FFFFFF"
                         points="495.573581 317.479184 505.436584 309.812852 507.587486 312.67259 497.724482 320.340474"></polygon>
                <polygon id="Fill-74" fill="#FFFFFF"
                         points="280.595256 238.375423 271.063731 232.536667 272.796736 229.351747 282.326767 235.190503"></polygon>
                <polygon id="Fill-75" fill="#FFFFFF"
                         points="295.611374 245.895152 286.081112 240.056397 287.813887 236.871477 297.344148 242.710232"></polygon>
                <polygon id="Fill-76" fill="#FFFFFF"
                         points="309.877656 254.166855 300.347625 248.328099 302.080629 245.143179 311.61066 250.981935"></polygon>
                <polygon id="Fill-77" fill="#FFFFFF"
                         points="324.144398 263.19053 314.614137 257.351774 316.346911 254.166855 325.877173 260.00561"></polygon>
                <polygon id="Fill-78" fill="#FFFFFF"
                         points="336.908942 270.710259 327.378911 264.871504 329.110421 261.686584 338.641947 267.525339"></polygon>
                <polygon id="Fill-79" fill="#FFFFFF"
                         points="351.927817 278.229989 342.396292 272.391233 344.129297 269.206313 353.659328 275.045069"></polygon>
                <polygon id="Fill-80" fill="#FFFFFF"
                         points="365.442196 288.005637 355.911935 282.166882 357.64471 278.981962 367.174971 284.820717"></polygon>
                <polygon id="Fill-81" fill="#FFFFFF"
                         points="379.708479 294.773393 370.178447 288.934638 371.911452 285.749718 381.441483 291.588474"></polygon>
                <polygon id="Fill-82" fill="#FFFFFF"
                         points="393.975221 303.045096 384.444959 297.20634 386.177734 294.021421 395.707995 299.860176"></polygon>
                <polygon id="Fill-83" fill="#FFFFFF"
                         points="408.241503 312.068771 398.711472 306.230016 400.442982 303.045096 409.974508 308.883851"></polygon>
                <polygon id="Fill-84" fill="#FFFFFF"
                         points="282.326767 225.813618 272.822679 231.607666 271.063731 228.379646 280.56782 222.583991"></polygon>
                <polygon id="Fill-85" fill="#FFFFFF"
                         points="296.593279 217.541341 287.088954 223.335964 285.330243 220.106912 294.83305 214.312289"></polygon>
                <polygon id="Fill-86" fill="#FFFFFF"
                         points="310.108922 209.269639 300.604834 215.064262 298.845886 211.835209 308.349975 206.040586"></polygon>
                <polygon id="Fill-87" fill="#FFFFFF"
                         points="324.375435 201.750484 314.871109 207.544532 313.112399 204.316512 322.615205 198.520857"></polygon>
                <polygon id="Fill-88" fill="#FFFFFF"
                         points="337.891078 193.478207 328.386989 199.27283 326.628042 196.043777 336.13213 190.249154"></polygon>
                <polygon id="Fill-89" fill="#FFFFFF"
                         points="351.406721 185.958477 341.902395 191.7531 340.143685 188.524048 349.646492 182.729425"></polygon>
                <polygon id="Fill-90" fill="#768EBC"
                         points="183.212051 482.891625 174.555341 488.03044 172.699884 484.897552 181.356594 479.758737"></polygon>
                <polygon id="Fill-91" fill="#768EBC"
                         points="193.724218 476.123868 185.067508 481.262683 183.212051 478.129796 191.868761 472.990981"></polygon>
                <polygon id="Fill-92" fill="#768EBC"
                         points="206.488992 468.604139 197.832282 473.742954 195.976825 470.610066 204.633535 465.471251"></polygon>
                <polygon id="Fill-93" fill="#768EBC"
                         points="219.253766 461.083434 210.597056 466.223224 208.741599 463.091312 217.398309 457.951522"></polygon>
                <polygon id="Fill-94" fill="#768EBC"
                         points="230.516802 454.315678 221.860092 459.455468 220.004635 456.323556 228.661345 451.183766"></polygon>
                <polygon id="Fill-95" fill="#768EBC"
                         points="243.281576 446.795948 234.624866 451.935738 232.769409 448.803826 241.426119 443.664036"></polygon>
                <polygon id="Fill-96" fill="#768EBC"
                         points="254.544612 440.029167 245.887902 445.167982 244.032445 442.035094 252.689155 436.89628"></polygon>
                <polygon id="Fill-97" fill="#FFFFFF"
                         points="268.060255 432.509438 259.403545 437.648253 257.548088 434.515365 266.204798 429.37655"></polygon>
                <polygon id="Fill-98" fill="#FFFFFF"
                         points="479.054461 554.52693 470.35974 560.219842 468.542294 556.887406 477.237016 551.196167"></polygon>
                <polygon id="Fill-99" fill="#FFFFFF"
                         points="491.068366 547.007201 482.375172 552.700113 480.556199 549.369349 489.25092 543.676437"></polygon>
                <polygon id="Fill-100" fill="#FFFFFF"
                         points="503.082271 538.735498 494.389077 544.42841 492.570104 541.095974 501.264825 535.404735"></polygon>
                <polygon id="Fill-101" fill="#FFFFFF"
                         points="517.348783 531.967742 508.655589 537.660654 506.836616 534.329891 515.532865 528.636979"></polygon>
                <polygon id="Fill-102" fill="#FFFFFF"
                         points="529.362688 524.448013 520.66923 530.140924 518.850521 526.808488 527.545507 521.117249"></polygon>
                <polygon id="Fill-103" fill="#FFFFFF"
                         points="541.376593 516.928283 532.683399 522.621195 530.864426 519.290432 539.559148 513.59752"></polygon>
                <polygon id="Fill-104" fill="#FFFFFF"
                         points="554.141367 509.408554 545.448173 515.101466 543.6292 511.769029 552.323922 506.07779"></polygon>
                <polygon id="Fill-105" fill="#FFFFFF"
                         points="566.906141 501.888824 558.212683 507.581736 556.393975 504.250973 565.08896 498.558061"></polygon>
                <polygon id="Fill-106" fill="#FFFFFF"
                         points="580.421784 494.369095 571.727063 500.062007 569.909618 496.72957 578.604339 491.038331"></polygon>
                <polygon id="Fill-107" fill="#FFFFFF"
                         points="593.186559 486.097392 584.493365 491.790304 582.674392 488.459541 591.369113 482.766629"></polygon>
                <polygon id="Fill-108" fill="#FFFFFF"
                         points="604.449594 480.081609 595.756401 485.774521 593.937428 482.442085 602.632149 476.750846"></polygon>
                <polygon id="Fill-109" fill="#FFFFFF"
                         points="617.965238 471.809907 609.271779 477.502818 607.453071 474.172055 616.148056 468.479143"></polygon>
                <polygon id="Fill-110" fill="#FFFFFF"
                         points="147.170336 607.916688 138.368834 613.609921 136.658169 610.279479 145.458194 604.586246"></polygon>
                <polygon id="Fill-111" fill="#FFFFFF"
                         points="159.93511 600.396958 151.135085 606.090192 149.422943 602.75975 158.222968 597.066516"></polygon>
                <polygon id="Fill-112" fill="#FFFFFF"
                         points="173.450753 592.877229 164.650728 598.570462 162.938586 595.24002 171.738611 589.546787"></polygon>
                <polygon id="Fill-113" fill="#FFFFFF"
                         points="186.966396 584.605527 178.165134 590.29876 176.454229 586.968318 185.255491 581.275085"></polygon>
                <polygon id="Fill-114" fill="#FFFFFF"
                         points="198.980301 577.085797 190.180276 582.77903 188.468134 579.448588 197.268159 573.755355"></polygon>
                <polygon id="Fill-115" fill="#FFFFFF"
                         points="213.246813 568.814095 204.446788 574.507328 202.734647 571.176886 211.534672 565.483653"></polygon>
                <polygon id="Fill-116" fill="#FFFFFF"
                         points="225.260718 561.294365 216.460693 566.987599 214.748552 563.657157 223.548577 557.963923"></polygon>
                <polygon id="Fill-117" fill="#FFFFFF"
                         points="238.776362 553.774636 229.976337 559.467869 228.264195 556.139084 237.06422 550.444194"></polygon>
                <polygon id="Fill-118" fill="#FFFFFF"
                         points="252.292005 547.006268 243.49198 552.700113 241.779838 549.370282 250.579863 543.676437"></polygon>
                <polygon id="Fill-119" fill="#FFFFFF"
                         points="266.558517 538.735177 257.758492 544.42841 256.04635 541.097968 264.846375 535.404735"></polygon>
                <polygon id="Fill-120" fill="#FFFFFF"
                         points="278.572422 531.967421 269.772397 537.660654 268.060255 534.330212 276.86028 528.636979"></polygon>
                <polygon id="Fill-121" fill="#768EBC"
                         points="292.088065 523.695718 283.28804 529.388952 281.575898 526.058509 290.375923 520.365276"></polygon>
                <polygon id="Fill-122" fill="#768EBC"
                         points="304.852839 516.175989 296.052814 521.869222 294.340672 518.53878 303.140697 512.845547"></polygon>
                <polygon id="Fill-123" fill="#FFFFFF"
                         points="317.617613 508.656259 308.817588 514.349493 307.105446 511.019051 315.905471 505.325817"></polygon>
                <polygon id="Fill-124" fill="#FFFFFF"
                         points="331.133256 501.13653 322.333231 506.829763 320.621089 503.499321 329.421114 497.806088"></polygon>
                <polygon id="Fill-125" fill="#FFFFFF"
                         points="344.648899 493.616801 335.848874 499.310034 334.136732 495.979592 342.936757 490.286359"></polygon>
                <polygon id="Fill-126" fill="#768EBC"
                         points="47.3047509 405.416709 37.7293549 411.3292 36.0417149 408.219564 45.6171109 402.305524"></polygon>
                <polygon id="Fill-127" fill="#768EBC"
                         points="62.3221321 397.145007 52.7481885 403.057497 51.0590962 399.947862 60.6344922 394.033822"></polygon>
                <polygon id="Fill-128" fill="#768EBC"
                         points="76.5886443 388.873304 67.0132483 394.785795 65.3256083 391.676159 74.899552 385.76212"></polygon>
                <polygon id="Fill-129" fill="#768EBC"
                         points="91.6060255 379.097656 82.0306295 385.010147 80.3429896 381.900511 89.9183856 375.986471"></polygon>
                <polygon id="Fill-130" fill="#768EBC"
                         points="105.872538 371.577927 96.298594 377.490417 94.6095017 374.380782 104.184898 368.466742"></polygon>
                <polygon id="Fill-131" fill="#768EBC"
                         points="120.889919 362.812938 111.314523 369.218715 109.626883 365.850521 119.200827 359.443067"></polygon>
                <polygon id="Fill-132" fill="#768EBC"
                         points="134.405562 353.530576 124.831618 359.443067 123.142526 356.333431 132.717922 350.419391"></polygon>
                <polygon id="Fill-133" fill="#FFFFFF"
                         points="148.672074 345.51756 139.096678 351.923337 137.409038 348.555144 146.982982 342.147689"></polygon>
                <polygon id="Fill-134" fill="#FFFFFF"
                         points="164.440324 337.739144 154.864928 343.651635 153.177289 340.541999 162.752685 334.627959"></polygon>
                <polygon id="Fill-135" fill="#FFFFFF"
                         points="177.205098 328.974156 167.631155 335.379932 165.942063 332.011739 175.517459 325.604284"></polygon>
                <g id="Group-701">
                    <path d="M224.895642,188.952052 C220.676501,191.391934 213.832671,191.391934 209.611971,188.95049 C205.39283,186.509046 205.39283,182.549315 209.611971,180.109434 C213.832671,177.666428 220.676501,177.666428 224.895642,180.109434 C229.116341,182.550877 229.116341,186.510608 224.895642,188.952052"
                          id="Fill-136" fill="#6FB0A7"></path>
                    <path d="M217.801344,149.133401 L216.456269,149.133401 L215.008326,183.968102 C215.008326,184.278945 216.015184,184.53043 217.252716,184.53043 C218.494923,184.53043 219.500222,184.278945 219.500222,183.968102 L217.801344,149.133401 Z"
                          id="Fill-138" fill="#8A6239"></path>
                    <path d="M229.183361,157.867147 C229.183361,166.325508 223.842025,173.182794 217.253807,173.182794 C210.665588,173.182794 205.32581,166.325508 205.32581,157.867147 C205.32581,149.407224 210.665588,142.549938 217.253807,142.549938 C223.842025,142.549938 229.183361,149.407224 229.183361,157.867147"
                          id="Fill-140" fill="#6FB0A7"></path>
                    <polygon id="Fill-142" fill="#7BF2DD"
                             points="322.988876 150.545159 306.547163 160.057886 306.547163 194.905082 322.988876 185.392355"></polygon>
                    <polygon id="Fill-144" fill="#FFFFFF"
                             points="260.748209 114.489736 244.306496 124.002463 306.547786 160.01493 322.989499 150.502203"></polygon>
                    <polygon id="Fill-146" fill="#A7F2E4"
                             points="306.547319 160.05773 244.623983 124.22802 244.623983 159.076778 306.547319 194.906488"></polygon>
                    <polygon id="Fill-148" fill="#FFFFFF"
                             points="299.564149 167.002177 249.478411 138.020381 249.478411 133.473328 299.564149 162.455124"></polygon>
                    <polygon id="Fill-150" fill="#FFFFFF"
                             points="299.564149 175.501775 249.478411 146.519979 249.478411 141.972926 299.564149 170.954722"></polygon>
                    <polygon id="Fill-152" fill="#FFFFFF"
                             points="299.564149 184.000592 249.478411 155.018796 249.478411 150.471744 299.564149 179.45354"></polygon>
                    <polygon id="Fill-154" fill="#FFFFFF"
                             points="157.83468 20.5852186 137.069399 32.6003083 173.214984 53.5142495 193.980265 41.4991598"></polygon>
                    <polygon id="Fill-156" fill="#476FBF"
                             points="193.980888 41.5071261 173.215607 53.5222159 173.215607 182.376712 193.980888 170.36006"></polygon>
                    <polygon id="Fill-158" fill="#FFA6C9"
                             points="193.980888 167.018109 173.215607 179.033199 173.215607 182.375931 193.980888 170.360841"></polygon>
                    <polygon id="Fill-160" fill="#768EBC"
                             points="173.21514 53.5136247 137.067997 32.5965594 137.067997 161.452617 173.21514 182.36812"></polygon>
                    <polygon id="Fill-162" fill="#FFC4DB"
                             points="173.21514 179.023983 137.067997 158.110042 137.069555 161.452773 173.21514 182.368277"></polygon>
                    <polygon id="Fill-164" fill="#FFFFFF"
                             points="167.690045 60.3429505 141.79384 45.3584529 141.79384 41.3237445 167.688486 56.3082421"></polygon>
                    <polygon id="Fill-166" fill="#FFFFFF"
                             points="167.688486 69.4495512 141.79384 54.4650536 141.79384 50.4319073 167.690045 65.4148429"></polygon>
                    <polygon id="Fill-168" fill="#FFFFFF"
                             points="167.690045 87.6593163 141.79384 72.6779427 141.79384 68.6416724 167.688486 83.6246079"></polygon>
                    <polygon id="Fill-170" fill="#FFFFFF"
                             points="167.688486 96.7637302 141.79384 81.7807946 141.79384 77.7476483 167.690045 92.7290219"></polygon>
                    <polygon id="Fill-172" fill="#FFFFFF"
                             points="167.690045 114.976307 141.79384 99.9918093 141.79384 95.957101 167.688486 110.941599"></polygon>
                    <polygon id="Fill-174" fill="#FFFFFF"
                             points="167.688486 124.080877 141.79384 109.096379 141.79384 105.063233 167.690045 120.046169"></polygon>
                    <polygon id="Fill-176" fill="#FFFFFF"
                             points="167.688486 142.290486 141.79384 127.309112 141.79384 123.274404 167.690045 138.255778"></polygon>
                    <polygon id="Fill-178" fill="#FFFFFF"
                             points="167.688486 151.396462 141.79384 136.413526 141.79384 132.38038 167.690045 147.361754"></polygon>
                    <polygon id="Fill-180" fill="#FFFFFF"
                             points="122.224164 132.556732 72.4517053 161.35421 155.123177 209.189637 204.894077 180.390598"></polygon>
                    <polygon id="Fill-182" fill="#476FBF"
                             points="204.894077 180.186285 155.121618 208.985324 155.121618 256.81919 204.894077 228.018588"></polygon>
                    <polygon id="Fill-184" fill="#FFA6C9"
                             points="204.894077 224.385945 155.031219 253.236531 155.031219 257.255619 204.894077 228.403471"></polygon>
                    <polygon id="Fill-186" fill="#7BF2DD"
                             points="204.894077 180.186285 155.031219 209.036871 155.031219 213.054397 204.894077 184.203811"></polygon>
                    <polygon id="Fill-188" fill="#768EBC"
                             points="155.129879 208.997508 72.4584073 161.162081 72.4584073 209.380204 155.129879 257.215631"></polygon>
                    <polygon id="Fill-190" fill="#A7F2E4"
                             points="155.129879 253.197949 72.4584073 205.362522 72.4584073 209.380048 155.129879 257.215475"></polygon>
                    <polygon id="Fill-192" fill="#A7F2E4"
                             points="155.129879 208.997508 72.4584073 161.162081 72.4584073 165.179607 155.129879 213.016596"></polygon>
                    <polygon id="Fill-194" fill="#FFFFFF"
                             points="148.399359 222.917018 79.1911088 182.871405 79.1911088 175.667349 148.399359 215.712962"></polygon>
                    <polygon id="Fill-196" fill="#FFFFFF"
                             points="148.399359 235.664072 79.1911088 195.620021 79.1911088 188.412841 148.399359 228.458454"></polygon>
                    <polygon id="Fill-198" fill="#A7F2E4"
                             points="121.247075 226.362062 106.340587 217.738127 106.340587 227.40237 121.247075 236.026305"></polygon>
                    <polygon id="Fill-200" fill="#FFFFFF"
                             points="347.842687 16.8922811 320.58582 32.6656009 368.035959 60.1197372 395.295943 44.3479795"></polygon>
                    <polygon id="Fill-202" fill="#476FBF"
                             points="395.29641 44.3557896 368.036427 60.1306714 368.036427 229.283828 395.29641 213.508946"></polygon>
                    <polygon id="Fill-204" fill="#7BF2DD"
                             points="395.29641 209.121845 368.036427 224.895165 368.036427 229.282891 395.29641 213.509571"></polygon>
                    <polygon id="Fill-206" fill="#768EBC"
                             points="368.036115 60.1178628 320.584418 32.6621644 320.584418 201.815321 368.036115 229.271019"></polygon>
                    <polygon id="Fill-208" fill="#A7F2E4"
                             points="368.036115 224.881732 320.584418 197.426033 320.585976 201.815321 368.036115 229.271019"></polygon>
                    <polygon id="Fill-210" fill="#FFFFFF"
                             points="360.783464 69.0849748 326.787194 49.4159668 326.787194 44.1207049 360.783464 63.789713"></polygon>
                    <polygon id="Fill-212" fill="#FFFFFF"
                             points="360.783464 81.0374274 326.787194 61.3684193 326.787194 56.0731575 360.783464 75.7406035"></polygon>
                    <polygon id="Fill-214" fill="#FFFFFF"
                             points="360.783464 92.9912857 326.787194 73.3222777 326.787194 68.0254538 360.783464 87.6944619"></polygon>
                    <polygon id="Fill-216" fill="#FFFFFF"
                             points="360.783464 104.944519 326.787194 85.2739492 326.787194 79.9802494 360.783464 99.6476954"></polygon>
                    <polygon id="Fill-218" fill="#FFFFFF"
                             points="360.783464 116.896816 326.787194 97.2278076 326.787194 91.9325458 360.783464 111.599992"></polygon>
                    <polygon id="Fill-220" fill="#FFFFFF"
                             points="360.783464 128.85083 326.787194 109.18026 326.787194 103.884998 360.783464 123.554006"></polygon>
                    <polygon id="Fill-222" fill="#FFFFFF"
                             points="360.783464 140.803908 326.787194 121.133338 326.787194 115.838076 360.783464 135.507084"></polygon>
                    <polygon id="Fill-224" fill="#FFFFFF"
                             points="360.783464 152.755579 326.787194 133.086571 326.787194 127.791309 360.783464 147.458755"></polygon>
                    <polygon id="Fill-226" fill="#FFFFFF"
                             points="360.783464 164.709437 326.787194 145.038867 326.787194 139.743606 360.783464 159.411052"></polygon>
                    <polygon id="Fill-228" fill="#FFFFFF"
                             points="360.783464 176.66189 326.787194 156.992882 326.787194 151.69762 360.783464 171.365066"></polygon>
                    <polygon id="Fill-230" fill="#FFFFFF"
                             points="360.783464 188.614967 326.787194 168.945959 326.787194 163.650697 360.783464 183.319706"></polygon>
                    <polygon id="Fill-232" fill="#FFFFFF"
                             points="360.783464 200.568201 326.787194 180.897631 326.787194 175.603931 360.783464 195.272939"></polygon>
                    <polygon id="Fill-234" fill="#FFFFFF"
                             points="426.890092 65.5034096 390.577737 86.5141964 453.785362 123.08743 490.097717 102.078205"></polygon>
                    <polygon id="Fill-236" fill="#768EBC"
                             points="453.786765 122.830789 390.577581 86.2575558 390.577581 311.581101 453.786765 348.15121"></polygon>
                    <polygon id="Fill-238" fill="#FFFFFF"
                             points="406.16253 112.81181 398.841767 108.575601 398.841767 101.519938 406.16253 105.757709"></polygon>
                    <polygon id="Fill-240" fill="#FFFFFF"
                             points="406.16253 128.732585 398.841767 124.496375 398.841767 117.442274 406.16253 121.678484"></polygon>
                    <polygon id="Fill-242" fill="#FFFFFF"
                             points="406.16253 144.656328 398.841767 140.420118 398.841767 133.364455 406.16253 137.600665"></polygon>
                    <polygon id="Fill-244" fill="#FFFFFF"
                             points="406.16253 160.579446 398.841767 156.343236 398.841767 149.287573 406.16253 153.523783"></polygon>
                    <polygon id="Fill-246" fill="#FFFFFF"
                             points="406.16253 176.49944 398.841767 172.26323 398.841767 165.207567 406.16253 169.443776"></polygon>
                    <polygon id="Fill-248" fill="#FFFFFF"
                             points="406.16253 192.42162 398.841767 188.185411 398.841767 181.129748 406.16253 185.367519"></polygon>
                    <polygon id="Fill-250" fill="#FFFFFF"
                             points="406.16253 208.344738 398.841767 204.108529 398.841767 197.052866 406.16253 201.289075"></polygon>
                    <polygon id="Fill-252" fill="#FFFFFF"
                             points="406.16253 224.2677 398.841767 220.03149 398.841767 212.975827 406.16253 217.212037"></polygon>
                    <polygon id="Fill-254" fill="#FFFFFF"
                             points="406.16253 240.190037 398.841767 235.953827 398.841767 228.896602 406.16253 233.135936"></polygon>
                    <polygon id="Fill-256" fill="#FFFFFF"
                             points="406.16253 256.111436 398.841767 251.875227 398.841767 244.819564 406.16253 249.057335"></polygon>
                    <polygon id="Fill-258" fill="#FFFFFF"
                             points="406.16253 272.034554 398.841767 267.795221 398.841767 260.742682 406.16253 264.978891"></polygon>
                    <polygon id="Fill-260" fill="#FFFFFF"
                             points="406.16253 287.953767 398.841767 283.717558 398.841767 276.663457 406.16253 280.899666"></polygon>
                    <polygon id="Fill-262" fill="#FFFFFF"
                             points="419.282858 120.403872 411.962095 116.166101 411.960536 109.112 419.282858 113.348209"></polygon>
                    <polygon id="Fill-264" fill="#FFFFFF"
                             points="419.282858 136.325272 411.962095 132.089062 411.962095 125.033399 419.282858 129.269609"></polygon>
                    <polygon id="Fill-266" fill="#FFFFFF"
                             points="419.282858 152.246828 411.962095 148.010618 411.962095 140.956517 419.282858 145.192727"></polygon>
                    <polygon id="Fill-268" fill="#FFFFFF"
                             points="419.282858 168.16979 411.962095 163.93358 411.960536 156.877917 419.282858 161.115689"></polygon>
                    <polygon id="Fill-270" fill="#FFFFFF"
                             points="419.282858 184.092907 411.962095 179.853574 411.962095 172.801035 419.282858 177.037244"></polygon>
                    <polygon id="Fill-272" fill="#FFFFFF"
                             points="419.282858 200.015244 411.962095 195.775911 411.962095 188.724934 419.282858 192.961143"></polygon>
                    <polygon id="Fill-274" fill="#FFFFFF"
                             points="419.282858 215.935082 411.962095 211.698873 411.960536 204.644772 419.282858 208.884105"></polygon>
                    <polygon id="Fill-276" fill="#FFFFFF"
                             points="419.282858 231.8582 411.962095 227.62199 411.962095 220.566327 419.282858 224.802537"></polygon>
                    <polygon id="Fill-278" fill="#FFFFFF"
                             points="419.282858 247.779756 411.962095 243.543546 411.962095 236.489445 419.282858 240.725655"></polygon>
                    <polygon id="Fill-280" fill="#FFFFFF"
                             points="419.282858 263.701937 411.960536 259.465727 411.962095 252.411626 419.282858 256.647836"></polygon>
                    <polygon id="Fill-282" fill="#FFFFFF"
                             points="419.282858 279.625055 411.962095 275.388845 411.962095 268.333182 419.282858 272.570953"></polygon>
                    <polygon id="Fill-284" fill="#FFFFFF"
                             points="419.282858 295.547235 411.960536 291.307902 411.962095 284.255363 419.282858 288.493134"></polygon>
                    <polygon id="Fill-286" fill="#FFFFFF"
                             points="432.404589 127.995778 425.083826 123.758007 425.082267 116.703906 432.404589 120.941677"></polygon>
                    <polygon id="Fill-288" fill="#FFFFFF"
                             points="432.404589 143.918115 425.082267 139.680344 425.083826 132.626243 432.404589 136.862452"></polygon>
                    <polygon id="Fill-290" fill="#FFFFFF"
                             points="432.404589 159.841077 425.083826 155.601743 425.082267 148.547642 432.404589 152.785414"></polygon>
                    <polygon id="Fill-292" fill="#FFFFFF"
                             points="432.404589 175.763414 425.083826 171.52408 425.082267 164.469979 432.404589 168.709313"></polygon>
                    <polygon id="Fill-294" fill="#FFFFFF"
                             points="432.404589 191.683408 425.082267 187.447198 425.083826 180.391535 432.404589 184.629307"></polygon>
                    <polygon id="Fill-296" fill="#FFFFFF"
                             points="432.404589 207.606369 425.082267 203.37016 425.082267 196.314497 432.404589 200.550706"></polygon>
                    <polygon id="Fill-298" fill="#FFFFFF"
                             points="432.404589 223.529487 425.083826 219.293278 425.082267 212.237615 432.404589 216.473824"></polygon>
                    <polygon id="Fill-300" fill="#FFFFFF"
                             points="432.404589 239.4487 425.082267 235.212491 425.083826 228.15839 432.404589 232.397723"></polygon>
                    <polygon id="Fill-302" fill="#FFFFFF"
                             points="432.404589 255.373224 425.082267 251.137014 425.082267 244.079789 432.404589 248.319123"></polygon>
                    <polygon id="Fill-304" fill="#FFFFFF"
                             points="432.404589 271.293218 425.082267 267.057008 425.082267 260.001345 432.404589 264.240679"></polygon>
                    <polygon id="Fill-306" fill="#FFFFFF"
                             points="432.404589 287.215398 425.082267 282.979189 425.083826 275.925088 432.404589 280.164421"></polygon>
                    <polygon id="Fill-308" fill="#FFFFFF"
                             points="432.404589 303.137735 425.082267 298.901526 425.082267 291.847425 432.404589 296.085196"></polygon>
                    <polygon id="Fill-310" fill="#FFFFFF"
                             points="445.524917 135.587059 438.202595 131.35085 438.202595 124.295187 445.523358 128.532958"></polygon>
                    <polygon id="Fill-312" fill="#FFFFFF"
                             points="445.524917 151.508459 438.202595 147.27225 438.202595 140.216586 445.524917 144.454358"></polygon>
                    <polygon id="Fill-314" fill="#FFFFFF"
                             points="445.524917 167.431577 438.202595 163.195367 438.202595 156.139704 445.524917 160.377476"></polygon>
                    <polygon id="Fill-316" fill="#FFFFFF"
                             points="445.524917 183.354539 438.202595 179.118329 438.202595 172.062666 445.523358 176.298876"></polygon>
                    <polygon id="Fill-318" fill="#FFFFFF"
                             points="445.524917 199.274533 438.202595 195.038323 438.202595 187.98266 445.524917 192.218869"></polygon>
                    <polygon id="Fill-320" fill="#FFFFFF"
                             points="445.524917 215.196869 438.202595 210.96066 438.202595 203.906559 445.524917 208.142768"></polygon>
                    <polygon id="Fill-322" fill="#FFFFFF"
                             points="445.524917 231.119831 438.202595 226.883622 438.202595 219.827959 445.523358 224.06573"></polygon>
                    <polygon id="Fill-324" fill="#FFFFFF"
                             points="445.524917 247.041387 438.202595 242.805178 438.202595 235.751077 445.524917 239.987286"></polygon>
                    <polygon id="Fill-326" fill="#FFFFFF"
                             points="445.524917 262.964505 438.202595 258.728296 438.202595 251.672632 445.524917 255.908842"></polygon>
                    <polygon id="Fill-328" fill="#FFFFFF"
                             points="445.523358 278.886686 438.202595 274.650476 438.202595 267.594813 445.524917 271.832585"></polygon>
                    <polygon id="Fill-330" fill="#FFFFFF"
                             points="445.524917 294.809023 438.202595 290.569689 438.202595 283.51715 445.524917 287.754922"></polygon>
                    <polygon id="Fill-332" fill="#FFFFFF"
                             points="445.523358 310.731203 438.202595 306.49187 438.202595 299.439331 445.524917 303.67554"></polygon>
                    <polygon id="Fill-334" fill="#A7F2E4"
                             points="453.786765 342.310333 390.577581 305.735538 390.577581 311.580632 453.786765 348.150741"></polygon>
                    <polygon id="Fill-336" fill="#476FBF"
                             points="490.098808 101.81969 453.786453 122.830477 453.786453 348.150897 490.098808 327.143235"></polygon>
                    <polygon id="Fill-338" fill="#FFFFFF"
                             points="431.392431 40.724552 410.140866 53.0223681 449.283646 75.6701562 470.535211 63.3739021"></polygon>
                    <polygon id="Fill-340" fill="#768EBC"
                             points="449.065286 75.5330105 410.14071 53.0101843 410.14071 89.086694 449.065286 111.60952"></polygon>
                    <polygon id="Fill-342" fill="#FFFFFF"
                             points="442.41067 85.8653316 415.630737 70.3716141 415.630737 66.4415613 442.409112 81.9352788"></polygon>
                    <polygon id="Fill-344" fill="#FFFFFF"
                             points="442.409268 97.5035049 415.630893 82.0097874 415.630893 78.0797346 442.409268 93.5734521"></polygon>
                    <polygon id="Fill-346" fill="#476FBF"
                             points="470.3195 63.3403186 449.064818 75.6381347 449.064818 111.714644 470.3195 99.4168282"></polygon>
                    <polygon id="Fill-348" fill="#FFA6C9"
                             points="490.098808 321.294704 453.786453 342.307053 453.786453 348.150585 490.098808 327.142922"></polygon>
                    <path d="M391.488273,439.718783 C385.629481,443.108376 376.126673,443.108376 370.264763,439.717221 C364.402854,436.326067 364.402854,430.827742 370.264763,427.43815 C376.126673,424.046995 385.629481,424.046995 391.488273,427.43815 C397.350183,430.829304 397.350183,436.327629 391.488273,439.718783"
                          id="Fill-350" fill="#6FB0A7"></path>
                    <path d="M381.637429,384.420942 L379.767104,384.420942 L377.758063,432.798392 C377.758063,433.227948 379.153014,433.579404 380.87683,433.579404 C382.599087,433.579404 383.995596,433.227948 383.995596,432.798392 L381.637429,384.420942 Z"
                          id="Fill-352" fill="#8A6239"></path>
                    <path d="M397.442608,396.549591 C397.442608,408.297574 390.025212,417.819674 380.876207,417.819674 C371.727201,417.819674 364.311364,408.297574 364.311364,396.549591 C364.311364,384.801607 371.727201,375.279508 380.876207,375.279508 C390.025212,375.279508 397.442608,384.801607 397.442608,396.549591"
                          id="Fill-354" fill="#6FB0A7"></path>
                    <path d="M309.384445,397.795774 C303.524095,401.185366 294.021286,401.185366 288.159377,397.794212 C282.297467,394.403057 282.297467,388.904732 288.159377,385.51514 C294.021286,382.122423 303.524095,382.122423 309.384445,385.51514 C315.244796,388.906294 315.244796,394.404619 309.384445,397.795774"
                          id="Fill-356" fill="#6FB0A7"></path>
                    <path d="M299.532042,342.497932 L297.661717,342.497932 L295.652677,390.87382 C295.652677,391.304939 297.049186,391.654832 298.771443,391.654832 C300.493701,391.654832 301.89021,391.304939 301.89021,390.87382 L299.532042,342.497932 Z"
                          id="Fill-358" fill="#8A6239"></path>
                    <path d="M315.337377,354.626581 C315.337377,366.373003 307.919981,375.895102 298.770976,375.895102 C289.621971,375.895102 282.206133,366.373003 282.206133,354.626581 C282.206133,342.878597 289.621971,333.354936 298.770976,333.354936 C307.919981,333.354936 315.337377,342.878597 315.337377,354.626581"
                          id="Fill-360" fill="#6FB0A7"></path>
                    <polygon id="Fill-362" fill="#7BF2DD"
                             points="311.947726 406.820212 295.506012 416.332939 295.506012 451.180136 311.947726 441.667409"></polygon>
                    <polygon id="Fill-364" fill="#FFFFFF"
                             points="249.707058 370.764009 233.265345 380.276736 295.506636 416.290764 311.948349 406.778037"></polygon>
                    <polygon id="Fill-366" fill="#A7F2E4"
                             points="295.506168 416.332627 233.581274 380.502917 233.581274 415.351675 295.506168 451.181385"></polygon>
                    <polygon id="Fill-368" fill="#FFFFFF"
                             points="288.522999 423.277855 238.435702 394.294497 238.435702 389.749006 288.522999 418.730802"></polygon>
                    <polygon id="Fill-370" fill="#FFFFFF"
                             points="288.522999 431.775891 238.435702 402.794095 238.435702 398.247042 288.522999 427.2304"></polygon>
                    <polygon id="Fill-372" fill="#FFFFFF"
                             points="288.522999 440.275489 238.435702 411.293693 238.435702 406.746641 288.522999 435.728437"></polygon>
                    <polygon id="Fill-374" fill="#7BF2DD"
                             points="367.690573 438.228456 351.247301 447.742745 351.247301 482.589942 367.690573 473.077215"></polygon>
                    <polygon id="Fill-376" fill="#FFFFFF"
                             points="329.801534 416.584425 313.359821 426.097152 351.247924 447.699946 367.691196 438.187219"></polygon>
                    <polygon id="Fill-378" fill="#A7F2E4"
                             points="351.247613 447.742433 313.675906 426.322396 313.675906 461.172716 351.247613 482.591192"></polygon>
                    <polygon id="Fill-380" fill="#FFFFFF"
                             points="344.262885 454.686099 318.530333 440.115538 318.530333 435.570047 344.262885 450.140609"></polygon>
                    <polygon id="Fill-382" fill="#FFFFFF"
                             points="344.262885 463.185697 318.530333 448.615136 318.530333 444.068083 344.262885 458.638645"></polygon>
                    <polygon id="Fill-384" fill="#FFFFFF"
                             points="344.262885 471.685295 318.530333 457.114734 318.530333 452.567682 344.262885 467.138243"></polygon>
                    <polygon id="Fill-386" fill="#7BF2DD"
                             points="204.088902 223.158819 191.828924 230.251971 191.828924 256.23468 204.088902 249.139966"></polygon>
                    <polygon id="Fill-388" fill="#FFFFFF"
                             points="186.350742 212.85149 174.093881 219.944642 191.829235 230.219637 204.089214 223.126485"></polygon>
                    <polygon id="Fill-390" fill="#A7F2E4"
                             points="191.828612 230.251971 174.327048 220.112872 174.327048 246.095581 191.828612 256.23468"></polygon>
                    <polygon id="Fill-392" fill="#FFFFFF"
                             points="186.623186 235.429143 177.947997 230.396302 177.947997 227.006709 186.623186 232.039551"></polygon>
                    <polygon id="Fill-394" fill="#FFFFFF"
                             points="186.623186 248.103095 177.947997 243.070253 177.947997 233.343529 186.623186 238.376371"></polygon>
                    <polygon id="Fill-396" fill="#FFFFFF"
                             points="186.623186 248.103095 177.947997 243.070253 177.947997 239.680661 186.623186 244.713502"></polygon>
                    <polygon id="Fill-398" fill="#7BF2DD"
                             points="88.4005879 208.172291 76.1421677 215.267004 76.1421677 241.248152 88.4005879 234.155"></polygon>
                    <polygon id="Fill-400" fill="#FFFFFF"
                             points="48.7596781 185.448276 36.501258 192.541427 76.1412326 215.232952 88.4012113 208.141363"></polygon>
                    <polygon id="Fill-402" fill="#A7F2E4"
                             points="76.141856 215.266223 36.735672 192.709033 36.735672 218.691742 76.141856 241.248933"></polygon>
                    <polygon id="Fill-404" fill="#FFFFFF"
                             points="70.9348719 220.443552 40.3550621 202.992619 40.3550621 199.603026 70.9348719 217.05396"></polygon>
                    <polygon id="Fill-406" fill="#FFFFFF"
                             points="70.9348719 233.117348 40.3550621 215.666414 40.3550621 205.93969 70.9348719 223.389061"></polygon>
                    <polygon id="Fill-408" fill="#FFFFFF"
                             points="70.9348719 233.117348 40.3550621 215.667976 40.3550621 212.276822 70.9348719 229.727755"></polygon>
                    <polygon id="Fill-410" fill="#FFFFFF"
                             points="492.05922 181.243463 466.307966 196.145173 511.134974 222.084146 536.889346 207.182436"></polygon>
                    <polygon id="Fill-412" fill="#476FBF"
                             points="536.888879 207.191496 511.136065 222.093206 511.136065 381.89921 536.888879 366.9975"></polygon>
                    <polygon id="Fill-414" fill="#7BF2DD"
                             points="536.888879 362.851575 511.136065 377.753286 511.136065 381.898898 536.888879 366.997187"></polygon>
                    <polygon id="Fill-416" fill="#768EBC"
                             points="511.135442 222.081803 466.305316 196.14283 466.305316 355.948834 511.135442 381.889369"></polygon>
                    <polygon id="Fill-418" fill="#FFC4DB"
                             points="511.135442 377.741258 466.305316 351.803847 466.306875 355.949459 511.135442 381.888432"></polygon>
                    <polygon id="Fill-420" fill="#FFFFFF"
                             points="504.283039 230.553129 472.166446 211.969728 472.166446 206.966564 504.281481 225.548403"></polygon>
                    <polygon id="Fill-422" fill="#FFFFFF"
                             points="504.281481 241.845782 472.166446 223.262381 472.166446 218.259218 504.283039 236.842619"></polygon>
                    <polygon id="Fill-424" fill="#FFFFFF"
                             points="504.283039 253.137655 472.166446 234.555816 472.166446 229.55109 504.283039 248.134492"></polygon>
                    <polygon id="Fill-426" fill="#FFFFFF"
                             points="504.283039 264.430308 472.166446 245.848469 472.166446 240.845306 504.281481 259.427145"></polygon>
                    <polygon id="Fill-428" fill="#FFFFFF"
                             points="504.281481 275.722962 472.166446 257.139561 472.166446 252.136397 504.283039 270.719799"></polygon>
                    <polygon id="Fill-430" fill="#FFFFFF"
                             points="504.283039 287.015616 472.166446 268.432214 472.166446 263.429051 504.283039 282.014014"></polygon>
                    <polygon id="Fill-432" fill="#FFFFFF"
                             points="504.283039 298.309831 472.166446 279.72643 472.166446 274.721705 504.281481 293.305106"></polygon>
                    <polygon id="Fill-434" fill="#FFFFFF"
                             points="504.281481 309.600923 472.166446 291.017521 472.166446 286.014358 504.283039 304.597759"></polygon>
                    <polygon id="Fill-436" fill="#FFFFFF"
                             points="504.283039 320.893576 472.166446 302.311737 472.166446 297.307012 504.281481 315.888851"></polygon>
                    <polygon id="Fill-438" fill="#FFFFFF"
                             points="504.281481 332.184668 472.166446 313.602828 472.166446 308.599665 504.283039 327.183066"></polygon>
                    <polygon id="Fill-440" fill="#FFFFFF"
                             points="504.281481 343.478883 472.166446 324.897044 472.166446 319.892319 504.283039 338.47572"></polygon>
                    <polygon id="Fill-442" fill="#FFFFFF"
                             points="504.281481 354.771537 472.166446 336.188136 472.166446 331.18341 504.281481 349.769936"></polygon>
                    <polygon id="Fill-444" fill="#7BF2DD"
                             points="244.347799 291.893973 222.176657 304.721315 222.176657 351.711688 244.347799 338.882783"></polygon>
                    <polygon id="Fill-446" fill="#FFFFFF"
                             points="160.419157 243.273629 138.248016 256.100971 222.177281 304.661177 244.348422 291.833835"></polygon>
                    <polygon id="Fill-448" fill="#A7F2E4"
                             points="222.177281 304.721159 138.673515 256.404628 138.673515 303.396563 222.177281 351.711532"></polygon>
                    <polygon id="Fill-450" fill="#FFFFFF"
                             points="212.760195 314.084088 145.219651 275.003806 145.219651 268.872861 212.760195 307.953143"></polygon>
                    <polygon id="Fill-452" fill="#FFFFFF"
                             points="188.48151 311.359762 172.367103 302.03604 172.367103 322.892186 188.48151 332.215908"></polygon>
                    <path d="M225.777032,384.027468 C221.557891,386.46735 214.714061,386.46735 210.49492,384.025906 C206.272662,381.584462 206.272662,377.623169 210.49492,375.184849 C214.714061,372.741844 221.557891,372.741844 225.777032,375.184849 C229.997732,377.624731 229.997732,381.586024 225.777032,384.027468"
                          id="Fill-454" fill="#6FB0A7"></path>
                    <path d="M218.684137,344.208036 L217.335945,344.208036 L215.88956,379.042737 C215.88956,379.353579 216.896419,379.605065 218.13395,379.605065 C219.374599,379.605065 220.379898,379.353579 220.379898,379.042737 L218.684137,344.208036 Z"
                          id="Fill-456" fill="#8A6239"></path>
                    <path d="M230.063193,352.942563 C230.063193,361.399361 224.723416,368.258209 218.135197,368.258209 C211.546978,368.258209 206.207201,361.399361 206.207201,352.942563 C206.207201,344.48264 211.546978,337.625354 218.135197,337.625354 C224.723416,337.625354 230.063193,344.48264 230.063193,352.942563"
                          id="Fill-458" fill="#6FB0A7"></path>
                    <path d="M554.039601,397.565531 C549.822018,400.005413 542.978188,400.005413 538.75593,397.563969 C534.535231,395.122526 534.535231,391.161232 538.75593,388.722913 C542.978188,386.279907 549.822018,386.279907 554.039601,388.722913 C558.2603,391.162794 558.2603,395.124088 554.039601,397.565531"
                          id="Fill-460" fill="#6FB0A7"></path>
                    <path d="M546.946862,357.746099 L545.598669,357.746099 L544.153843,392.5808 C544.153843,392.891643 545.159143,393.143129 546.398233,393.143129 C547.637323,393.143129 548.644181,392.891643 548.644181,392.5808 L546.946862,357.746099 Z"
                          id="Fill-462" fill="#8A6239"></path>
                    <path d="M558.32732,366.480626 C558.32732,374.937425 552.987543,381.796273 546.399324,381.796273 C539.809546,381.796273 534.469769,374.937425 534.469769,366.480626 C534.469769,358.020703 539.809546,351.163417 546.399324,351.163417 C552.987543,351.163417 558.32732,358.020703 558.32732,366.480626"
                          id="Fill-464" fill="#6FB0A7"></path>
                    <path d="M556.28477,467.530155 C552.067187,469.970036 545.223357,469.970036 541.001099,467.528593 C536.7804,465.087149 536.7804,461.127418 541.001099,458.687536 C545.223357,456.24453 552.067187,456.24453 556.28477,458.687536 C560.505469,461.12898 560.505469,465.088711 556.28477,467.530155"
                          id="Fill-466" fill="#6FB0A7"></path>
                    <path d="M549.191875,427.712285 L547.843682,427.712285 L546.398856,462.545423 C546.398856,462.856266 547.404156,463.107752 548.643246,463.107752 C549.882336,463.107752 550.889194,462.856266 550.889194,462.545423 L549.191875,427.712285 Z"
                          id="Fill-468" fill="#8A6239"></path>
                    <path d="M560.572333,436.445249 C560.572333,444.90361 555.232556,451.762458 548.644337,451.762458 C542.05456,451.762458 536.714782,444.90361 536.714782,436.445249 C536.714782,427.985327 542.05456,421.128041 548.644337,421.128041 C555.232556,421.128041 560.572333,427.985327 560.572333,436.445249"
                          id="Fill-470" fill="#6FB0A7"></path>
                    <polygon id="Fill-472" fill="#FFFFFF"
                             points="453.246397 308.260081 416.934042 329.270868 480.141667 365.842539 516.454022 344.833314"></polygon>
                    <polygon id="Fill-474" fill="#768EBC"
                             points="480.141511 365.781933 416.930769 329.210261 416.930769 489.230263 480.141511 525.801934"></polygon>
                    <polygon id="Fill-476" fill="#FFFFFF"
                             points="432.517276 354.150632 425.196513 349.912861 425.196513 342.85876 432.517276 347.094969"></polygon>
                    <polygon id="Fill-478" fill="#FFFFFF"
                             points="432.517276 370.071407 425.196513 365.835198 425.196513 358.779535 432.517276 363.017306"></polygon>
                    <polygon id="Fill-480" fill="#FFFFFF"
                             points="432.517276 385.993744 425.196513 381.755973 425.196513 374.703434 432.517276 378.939643"></polygon>
                    <polygon id="Fill-482" fill="#FFFFFF"
                             points="432.517276 401.915925 425.196513 397.679715 425.196513 390.624052 432.517276 394.861824"></polygon>
                    <polygon id="Fill-484" fill="#FFFFFF"
                             points="432.517276 417.838262 425.196513 413.602052 425.196513 406.546389 432.517276 410.784161"></polygon>
                    <polygon id="Fill-486" fill="#FFFFFF"
                             points="432.517276 433.760442 425.196513 429.522671 425.196513 422.46857 432.517276 426.706341"></polygon>
                    <polygon id="Fill-488" fill="#FFFFFF"
                             points="432.517276 449.682779 425.196513 445.44657 425.196513 438.390907 432.517276 442.628678"></polygon>
                    <polygon id="Fill-490" fill="#FFFFFF"
                             points="432.517276 465.603554 425.196513 461.367345 425.196513 454.311682 432.517276 458.551015"></polygon>
                    <polygon id="Fill-492" fill="#FFFFFF"
                             points="445.637604 361.741132 438.315283 357.504923 438.315283 350.44926 445.637604 354.685469"></polygon>
                    <polygon id="Fill-494" fill="#FFFFFF"
                             points="445.637604 377.663469 438.315283 373.42726 438.315283 366.371597 445.637604 370.609368"></polygon>
                    <polygon id="Fill-496" fill="#FFFFFF"
                             points="445.637604 393.587212 438.315283 389.349441 438.315283 382.295339 445.637604 386.531549"></polygon>
                    <polygon id="Fill-498" fill="#FFFFFF"
                             points="445.637604 409.507987 438.315283 405.271777 438.315283 398.216114 445.637604 402.452324"></polygon>
                    <polygon id="Fill-500" fill="#FFFFFF"
                             points="445.637604 425.430168 438.315283 421.192396 438.315283 414.138295 445.637604 418.376067"></polygon>
                    <polygon id="Fill-502" fill="#FFFFFF"
                             points="445.637604 441.352505 438.315283 437.114733 438.315283 430.060632 445.637604 434.296841"></polygon>
                    <polygon id="Fill-504" fill="#FFFFFF"
                             points="445.637604 457.274841 438.315283 453.03707 438.315283 445.982969 445.637604 450.219178"></polygon>
                    <polygon id="Fill-506" fill="#FFFFFF"
                             points="445.637604 473.197022 438.315283 468.957689 438.315283 461.90515 445.637604 466.142921"></polygon>
                    <polygon id="Fill-508" fill="#FFFFFF"
                             points="458.757776 369.333195 451.435455 365.095423 451.437013 358.041322 458.757776 362.277531"></polygon>
                    <polygon id="Fill-510" fill="#FFFFFF"
                             points="458.757776 385.256937 451.437013 381.017604 451.435455 373.965065 458.757776 378.201274"></polygon>
                    <polygon id="Fill-512" fill="#FFFFFF"
                             points="458.757776 401.177712 451.437013 396.941503 451.435455 389.88584 458.757776 394.123611"></polygon>
                    <polygon id="Fill-514" fill="#FFFFFF"
                             points="458.757776 417.099893 451.435455 412.862121 451.437013 405.80802 458.757776 410.045792"></polygon>
                    <polygon id="Fill-516" fill="#FFFFFF"
                             points="458.757776 433.023792 451.437013 428.784458 451.435455 421.731919 458.757776 425.966567"></polygon>
                    <polygon id="Fill-518" fill="#FFFFFF"
                             points="458.757776 448.94441 451.435455 444.706639 451.435455 437.652538 458.757776 441.888747"></polygon>
                    <polygon id="Fill-520" fill="#FFFFFF"
                             points="458.757776 464.866747 451.435455 460.628976 451.437013 453.574875 458.757776 457.812646"></polygon>
                    <polygon id="Fill-522" fill="#FFFFFF"
                             points="458.757776 480.789084 451.435455 476.551313 451.435455 469.497212 458.757776 473.733421"></polygon>
                    <polygon id="Fill-524" fill="#FFFFFF"
                             points="471.879663 376.9251 464.557342 372.687329 464.557342 365.633228 471.879663 369.870999"></polygon>
                    <polygon id="Fill-526" fill="#FFFFFF"
                             points="471.879663 392.847437 464.557342 388.611228 464.557342 381.555565 471.879663 385.793336"></polygon>
                    <polygon id="Fill-528" fill="#FFFFFF"
                             points="471.879663 408.769618 464.557342 404.533409 464.557342 397.477746 471.876546 401.713955"></polygon>
                    <polygon id="Fill-530" fill="#FFFFFF"
                             points="471.879663 424.690393 464.557342 420.454183 464.557342 413.400082 471.879663 417.637854"></polygon>
                    <polygon id="Fill-532" fill="#FFFFFF"
                             points="471.879663 440.614136 464.557342 436.377926 464.557342 429.322263 471.879663 433.558473"></polygon>
                    <polygon id="Fill-534" fill="#FFFFFF"
                             points="471.879663 456.534911 464.557342 452.298701 464.557342 445.243038 471.879663 449.48081"></polygon>
                    <polygon id="Fill-536" fill="#FFFFFF"
                             points="471.879663 472.45881 464.557342 468.219476 464.557342 461.166937 471.879663 465.404708"></polygon>
                    <polygon id="Fill-538" fill="#FFFFFF"
                             points="471.879663 488.379428 464.557342 484.143219 464.557342 477.087556 471.879663 481.325327"></polygon>
                    <polygon id="Fill-540" fill="#A7F2E4"
                             points="480.141511 519.958558 416.930769 483.385325 416.930769 489.230419 480.141511 525.80209"></polygon>
                    <polygon id="Fill-542" fill="#476FBF"
                             points="516.453554 344.772395 480.141199 365.78162 480.141199 525.803184 516.453554 504.790835"></polygon>
                    <polygon id="Fill-544" fill="#7BF2DD"
                             points="516.453554 498.946053 480.141199 519.95684 480.141199 525.801934 516.453554 504.791147"></polygon>
                    <polygon id="Fill-546" fill="#476FBF"
                             points="374.698212 240.369982 338.384298 261.382331 338.384298 331.518777 374.698212 310.506428"></polygon>
                    <polygon id="Fill-548" fill="#FFFFFF"
                             points="254.449734 170.765405 218.135821 191.776192 338.385234 261.354995 374.697589 240.344209"></polygon>
                    <polygon id="Fill-550" fill="#768EBC"
                             points="338.38461 261.381862 218.136756 191.804621 218.136756 261.939505 338.38461 331.518308"></polygon>
                    <polygon id="Fill-552" fill="#F0F0F0"
                             points="229.661229 224.796289 225.004121 222.100235 225.004121 210.895836 229.661229 213.588766"></polygon>
                    <polygon id="Fill-554" fill="#F0F0F0"
                             points="240.929157 231.315865 236.273607 228.621374 236.273607 217.415412 240.930715 220.108342"></polygon>
                    <polygon id="Fill-556" fill="#F0F0F0"
                             points="252.195681 237.834817 247.540131 235.140325 247.540131 223.934364 252.195681 226.628856"></polygon>
                    <polygon id="Fill-558" fill="#F0F0F0"
                             points="263.463453 244.354393 258.807903 241.661464 258.807903 230.45394 263.463453 233.14687"></polygon>
                    <polygon id="Fill-560" fill="#F0F0F0"
                             points="274.729977 250.874751 270.075986 248.180259 270.075986 236.974298 274.729977 239.667227"></polygon>
                    <polygon id="Fill-562" fill="#F0F0F0"
                             points="285.999307 257.393546 281.343757 254.700616 281.343757 243.493093 285.999307 246.187585"></polygon>
                    <polygon id="Fill-564" fill="#F0F0F0"
                             points="297.265676 263.913278 292.611685 261.218787 292.611685 250.012826 297.265676 252.707317"></polygon>
                    <polygon id="Fill-566" fill="#F0F0F0"
                             points="308.535162 270.433636 303.878053 267.739144 303.878053 256.531621 308.533604 259.226113"></polygon>
                    <polygon id="Fill-568" fill="#F0F0F0"
                             points="319.801531 276.953212 315.144422 274.258721 315.144422 263.052759 319.801531 265.745689"></polygon>
                    <polygon id="Fill-570" fill="#F0F0F0"
                             points="331.069458 283.47357 326.415467 280.777516 326.415467 269.569993 331.069458 272.266046"></polygon>
                    <polygon id="Fill-572" fill="#F0F0F0"
                             points="229.661229 240.062576 225.004121 237.366522 225.004121 226.162123 229.661229 228.855052"></polygon>
                    <polygon id="Fill-574" fill="#F0F0F0"
                             points="240.929157 246.583089 236.273607 243.887036 236.273607 232.681074 240.929157 235.375566"></polygon>
                    <polygon id="Fill-576" fill="#F0F0F0"
                             points="252.197084 253.101104 247.539975 250.406612 247.539975 239.200651 252.197084 241.895142"></polygon>
                    <polygon id="Fill-578" fill="#F0F0F0"
                             points="263.463453 259.621461 258.807903 256.926969 258.807903 245.719446 263.463453 248.413938"></polygon>
                    <polygon id="Fill-580" fill="#F0F0F0"
                             points="274.729977 266.141037 270.075986 263.446546 270.075986 252.240584 274.729977 254.933514"></polygon>
                    <polygon id="Fill-582" fill="#F0F0F0"
                             points="285.999307 272.659989 281.343757 269.967059 281.343757 258.759536 285.999307 261.454028"></polygon>
                    <polygon id="Fill-584" fill="#F0F0F0"
                             points="297.265676 279.179565 292.611685 276.485074 292.611685 265.279112 297.265676 267.973604"></polygon>
                    <polygon id="Fill-586" fill="#F0F0F0"
                             points="308.535162 285.699142 303.878053 283.00465 303.878053 271.798689 308.535162 274.491618"></polygon>
                    <polygon id="Fill-588" fill="#F0F0F0"
                             points="319.801531 292.22028 315.144422 289.525788 315.144422 278.319827 319.801531 281.012757"></polygon>
                    <polygon id="Fill-590" fill="#F0F0F0"
                             points="331.071017 298.740013 326.415467 296.043959 326.415467 284.83956 331.071017 287.532489"></polygon>
                    <polygon id="Fill-592" fill="#F0F0F0"
                             points="229.661229 255.329019 225.004121 252.636089 225.004121 241.430128 229.661229 244.121495"></polygon>
                    <polygon id="Fill-594" fill="#F0F0F0"
                             points="240.929157 261.847814 236.273607 259.153322 236.273607 247.948923 240.929157 250.641853"></polygon>
                    <polygon id="Fill-596" fill="#F0F0F0"
                             points="252.195681 268.368171 247.540131 265.67368 247.540131 254.467718 252.19724 257.16221"></polygon>
                    <polygon id="Fill-598" fill="#F0F0F0"
                             points="263.463453 274.887904 258.807903 272.193412 258.807903 260.989013 263.463453 263.681943"></polygon>
                    <polygon id="Fill-600" fill="#F0F0F0"
                             points="274.729977 281.408261 270.075986 278.71377 270.075986 267.507808 274.729977 270.2023"></polygon>
                    <polygon id="Fill-602" fill="#F0F0F0"
                             points="285.999307 287.926276 281.343757 285.231784 281.343757 274.027385 285.999307 276.721876"></polygon>
                    <polygon id="Fill-604" fill="#F0F0F0"
                             points="297.265676 294.446008 292.611685 291.751517 292.611685 280.547117 297.265676 283.240047"></polygon>
                    <polygon id="Fill-606" fill="#F0F0F0"
                             points="308.535162 300.967147 303.878053 298.272655 303.878053 287.066694 308.535162 289.759623"></polygon>
                    <polygon id="Fill-608" fill="#F0F0F0"
                             points="319.801531 307.486723 315.144422 304.790669 315.144422 293.58627 319.801531 296.280762"></polygon>
                    <polygon id="Fill-610" fill="#F0F0F0"
                             points="331.069458 314.006299 326.415467 311.310246 326.415467 300.105846 331.071017 302.800338"></polygon>
                    <polygon id="Fill-612" fill="#A7F2E4"
                             points="338.38461 325.674151 218.136756 256.095348 218.136756 261.940442 338.38461 331.517683"></polygon>
                    <polygon id="Fill-614" fill="#7BF2DD"
                             points="374.698212 304.661646 338.384298 325.673995 338.384298 331.517527 374.698212 310.50674"></polygon>
                    <polygon id="Fill-616" fill="#A7F2E4"
                             points="335.259765 276.528342 215.010352 206.949538 215.010352 199.240949 335.259765 268.81819"></polygon>
                    <polygon id="Fill-618" fill="#7BF2DD"
                             points="338.39365 274.714675 335.259297 276.528185 335.259297 268.819596 338.39365 267.004524"></polygon>
                    <polygon id="Fill-620" fill="#FFFFFF"
                             points="338.39365 266.99687 335.257739 268.81038 215.009884 199.231577 218.145796 197.416505"></polygon>
                    <path d="M394.606884,349.037502 C388.746533,352.427095 379.243725,352.427095 373.381815,349.03594 C367.521464,345.644786 367.521464,340.146461 373.381815,336.756869 C379.243725,333.365714 388.746533,333.365714 394.606884,336.756869 C400.467235,340.148023 400.467235,345.646348 394.606884,349.037502"
                          id="Fill-622" fill="#6FB0A7"></path>
                    <path d="M384.754637,293.739661 L382.884312,293.739661 L380.87683,342.117111 C380.87683,342.546667 382.271781,342.898123 383.994038,342.898123 C385.716295,342.898123 387.112804,342.546667 387.112804,342.117111 L384.754637,293.739661 Z"
                          id="Fill-624" fill="#8A6239"></path>
                    <path d="M400.559816,305.869716 C400.559816,317.616137 393.14242,327.138236 383.993414,327.138236 C374.845968,327.138236 367.428572,317.616137 367.428572,305.869716 C367.428572,294.121732 374.845968,284.598071 383.993414,284.598071 C393.14242,284.598071 400.559816,294.121732 400.559816,305.869716"
                          id="Fill-626" fill="#6FB0A7"></path>
                    <path d="M114.437223,271.260415 C110.726187,273.406636 104.708417,273.406636 100.997381,271.260415 C97.2832278,269.112632 97.2832278,265.63088 100.997381,263.483097 C104.708417,261.335314 110.726187,261.335314 114.437223,263.483097 C118.148259,265.63088 118.148259,269.112632 114.437223,271.260415"
                          id="Fill-628" fill="#6FB0A7"></path>
                    <path d="M108.198287,236.242177 L107.01219,236.242177 L105.741927,266.876594 C105.741927,267.151511 106.625656,267.371756 107.71512,267.371756 C108.807701,267.371756 109.69143,267.151511 109.69143,266.876594 L108.198287,236.242177 Z"
                          id="Fill-630" fill="#8A6239"></path>
                    <path d="M118.205927,243.92265 C118.205927,251.362571 113.509854,257.393546 107.716523,257.393546 C101.923192,257.393546 97.2255594,251.362571 97.2255594,243.92265 C97.2255594,236.482729 101.923192,230.453315 107.716523,230.453315 C113.509854,230.453315 118.205927,236.482729 118.205927,243.92265"
                          id="Fill-632" fill="#6FB0A7"></path>
                    <path d="M614.100716,430.346639 C611.031825,432.12266 606.053644,432.12266 602.983194,430.346639 C599.914303,428.570617 599.914303,425.691807 602.983194,423.915785 C606.053644,422.139764 611.031825,422.139764 614.100716,423.915785 C617.171166,425.691807 617.171166,428.570617 614.100716,430.346639"
                          id="Fill-634" fill="#6FB0A7"></path>
                    <path d="M608.940958,401.385149 L607.960596,401.385149 L606.910097,426.722743 C606.910097,426.947674 607.641082,427.130431 608.540396,427.130431 C609.444387,427.130431 610.175372,426.947674 610.175372,426.722743 L608.940958,401.385149 Z"
                          id="Fill-636" fill="#8A6239"></path>
                    <path d="M617.219483,407.738526 C617.219483,413.889777 613.335442,418.878882 608.541176,418.878882 C603.750027,418.878882 599.865986,413.889777 599.865986,407.738526 C599.865986,401.585713 603.750027,396.596608 608.541176,396.596608 C613.335442,396.596608 617.219483,401.585713 617.219483,407.738526"
                          id="Fill-638" fill="#6FB0A7"></path>
                    <path d="M136.788851,331.386942 C132.571268,333.826824 125.727438,333.826824 121.50518,331.38538 C117.286039,328.943936 117.286039,324.982643 121.50518,322.544323 C125.727438,320.101318 132.571268,320.101318 136.788851,322.544323 C141.00955,324.984205 141.00955,328.945498 136.788851,331.386942"
                          id="Fill-640" fill="#6FB0A7"></path>
                    <path d="M129.696112,291.56751 L128.349478,291.56751 L126.903093,326.402211 C126.903093,326.713053 127.908393,326.964539 129.145924,326.964539 C130.388132,326.964539 131.393431,326.713053 131.393431,326.402211 L129.696112,291.56751 Z"
                          id="Fill-642" fill="#8A6239"></path>
                    <path d="M141.07657,300.302037 C141.07657,308.758835 135.736793,315.617683 129.147015,315.617683 C122.558797,315.617683 117.219019,308.758835 117.219019,300.302037 C117.219019,291.842114 122.558797,284.984828 129.147015,284.984828 C135.736793,284.984828 141.07657,291.842114 141.07657,300.302037"
                          id="Fill-644" fill="#6FB0A7"></path>
                    <polygon id="Fill-646" fill="#47B7BF"
                             points="272.227639 337.119414 259.96766 344.214128 259.96766 370.196838 272.227639 363.102124"></polygon>
                    <polygon id="Fill-648" fill="#FFFFFF"
                             points="254.489323 326.813648 242.230903 333.906799 259.967816 344.181794 272.227795 337.088643"></polygon>
                    <polygon id="Fill-650" fill="#AFE3E1"
                             points="259.967348 344.214128 242.465784 334.075029 242.465784 360.059301 259.967348 370.196838"></polygon>
                    <polygon id="Fill-652" fill="#FFFFFF"
                             points="254.760364 349.391301 246.086733 344.356897 246.086733 340.967305 254.760364 346.001708"></polygon>
                    <polygon id="Fill-654" fill="#FFFFFF"
                             points="254.760364 356.345745 246.086733 351.312903 246.086733 347.923311 254.760364 352.956152"></polygon>
                    <polygon id="Fill-656" fill="#47B7BF"
                             points="637.692837 443.683357 625.432858 450.776509 625.432858 476.759218 637.692837 469.664505"></polygon>
                    <polygon id="Fill-658" fill="#FFFFFF"
                             points="619.954677 433.376184 607.697815 440.469336 625.43317 450.744331 637.693148 443.651179"></polygon>
                    <polygon id="Fill-660" fill="#AFE3E1"
                             points="625.432546 450.776509 607.930982 440.63741 607.930982 466.621681 625.432546 476.759218"></polygon>
                    <polygon id="Fill-662" fill="#FFFFFF"
                             points="620.227121 455.953838 611.55349 450.919434 611.55349 447.529841 620.227121 452.564245"></polygon>
                    <polygon id="Fill-664" fill="#FFFFFF"
                             points="620.227121 462.908125 611.55349 457.875283 611.55349 454.485691 620.227121 459.518533"></polygon>
                    <polygon id="Fill-666" fill="#47B7BF"
                             points="347.727038 331.592817 335.468618 338.68753 335.468618 364.67024 347.727038 357.575526"></polygon>
                    <polygon id="Fill-668" fill="#FFFFFF"
                             points="329.988878 321.28705 317.732017 328.37864 335.46893 338.655197 347.72735 331.562045"></polygon>
                    <polygon id="Fill-670" fill="#AFE3E1"
                             points="335.468306 338.68753 317.966742 328.548432 317.966742 354.531141 335.468306 364.67024"></polygon>
                    <polygon id="Fill-672" fill="#FFFFFF"
                             points="330.261322 343.864703 321.586132 338.830299 321.586132 335.440707 330.261322 340.475111"></polygon>
                    <polygon id="Fill-674" fill="#FFFFFF"
                             points="330.261322 350.819147 321.586132 345.786305 321.586132 342.395151 330.261322 347.429555"></polygon>
                    <polygon id="Fill-676" fill="#FFFFFF"
                             points="330.261322 357.69424 321.586132 352.659836 321.586132 349.270244 330.261322 354.304648"></polygon>
                    <path d="M280.087678,96.4235214 C280.333938,95.4253879 280.466419,94.3116647 280.466419,93.0823517 C280.466419,85.0176211 274.818038,75.2081095 267.846403,71.1765251 C261.96579,67.7728745 257.021898,69.5692023 255.623831,75.0581551 C254.476698,73.7085663 253.175264,72.5620406 251.795899,71.7622842 C247.182432,69.0912229 243.440223,71.2577504 243.440223,76.5967489 C243.440223,81.9357474 247.180873,88.4275198 251.794341,91.097019 L278.602329,106.607919 C281.300272,108.171505 283.490111,106.903141 283.488552,103.777531 C283.490111,101.256424 282.060871,98.2917023 280.087678,96.4235214 Z"
                          id="Stroke-678" stroke="#FFFFFF" stroke-width="2"></path>
                    <path d="M547.158364,170.531258 L550.183614,169.840843 C550.515597,169.765866 550.682368,169.289448 550.557679,168.77398 L547.987541,158.135034 C547.862853,157.62269 547.437354,157.022873 547.033676,156.799503 L543.352253,154.754814 C542.947016,154.531444 542.415532,153.937875 542.147452,153.436465 C540.500008,150.349906 538.464471,147.450789 536.173323,144.954674 C535.803934,144.554796 535.404932,143.825331 535.291154,143.314549 L534.220393,138.611294 C534.103497,138.100512 533.682674,137.496009 533.280554,137.263267 L524.966961,132.452233 C524.563283,132.217929 524.142459,132.336643 524.027123,132.713091 L522.959479,136.177661 C522.841025,136.55567 522.44514,136.822777 522.074192,136.797784 C519.784603,136.641582 517.747507,137.186728 516.098504,138.364494 C515.830424,138.555061 515.300499,138.533193 514.898379,138.291079 L511.21384,136.073005 C510.810161,135.830891 510.383104,135.935547 510.259974,136.305747 L507.691395,143.970599 C507.566706,144.342361 507.73036,145.012469 508.062342,145.46858 L511.089151,149.659491 C511.418017,150.117164 511.7048,150.874746 511.743765,151.358973 C511.999376,154.447095 512.800498,157.663303 514.024003,160.802971 C514.22818,161.323125 514.299875,162.038532 514.167394,162.39936 L512.957917,165.735844 C512.825436,166.096671 512.981296,166.765217 513.307045,167.227577 L520.033979,176.77623 C520.361286,177.237027 520.884977,177.535374 521.202932,177.438528 L524.136225,176.565357 C524.460415,176.470073 525.033981,176.671575 525.426749,176.996476 C526.617523,177.983675 527.856613,178.856846 529.123758,179.589436 C530.392461,180.323587 531.628434,180.88123 532.822325,181.27486 C533.211976,181.402946 533.787101,181.865305 534.109732,182.333912 L537.046142,186.604486 C537.364097,187.071531 537.889346,187.380812 538.211977,187.293339 L544.940471,185.532938 C545.266219,185.445464 545.422079,184.958113 545.291157,184.441083 L544.080121,179.708149 C543.946081,179.192682 544.017777,178.561624 544.220396,178.275773 C545.447017,176.552861 546.245022,174.264495 546.502192,171.473158 C546.541157,171.031105 546.82794,170.606235 547.158364,170.531258 Z"
                          id="Stroke-680" stroke="#FFFFFF" stroke-width="2"></path>
                    <path d="M540.162882,165.932034 C540.162882,172.989259 535.220549,175.849325 529.12329,172.322275 C523.026031,168.793662 518.08214,160.213463 518.08214,153.1578 C518.08214,146.102137 523.026031,143.243633 529.12329,146.770684 C535.220549,150.299296 540.162882,158.877933 540.162882,165.932034 Z"
                          id="Stroke-682" stroke="#FFFFFF" stroke-width="2"></path>
                    <path d="M84.3884296,75.9219545 C76.0841877,80.7251787 69.3556943,92.4059953 69.3556943,102.010882 C69.3556943,108.89316 72.8173538,112.818527 77.8282655,112.741988 L77.8267069,120.819214 C77.8267069,122.043841 78.6870563,122.542127 79.7453484,121.928252 L89.0283936,116.559575 C90.0866857,115.945699 90.9454765,114.453966 90.9454765,113.226215 L90.9454765,105.15055 C95.9563882,99.4288558 99.4180476,91.4984593 99.4180476,84.6161809 C99.4180476,75.0112944 92.6879957,71.1187302 84.3884296,75.9219545 Z"
                          id="Stroke-684" stroke="#FFFFFF" stroke-width="2"></path>
                    <path d="M90.896848,121.12459 C90.896848,121.852493 90.3856259,122.736599 89.7575085,123.102113 L79.0187272,129.315845 C78.3890512,129.681358 77.8762705,129.386136 77.8762705,128.656671 C77.8762705,127.928767 78.3890512,127.0431 79.0187272,126.679148 L89.7575085,120.465416 C90.3856259,120.099902 90.896848,120.395125 90.896848,121.12459 Z"
                          id="Stroke-686" stroke="#FFFFFF" stroke-width="2"></path>
                    <path d="M80.9272378,100.501029 L76.605229,97.703444 C76.2405156,97.4691403 76.2576603,96.7568573 76.6441941,96.1117414 C77.0291692,95.4666254 77.6370248,95.1386003 77.9986209,95.3713419 L80.9272378,97.2660772 L84.5541092,90.7243201 L88.1887736,93.0642323 L91.1251835,87.7783425 C91.4867796,87.1191684 92.0961938,86.7505307 92.4796103,86.9473457 C92.8661441,87.1472848 92.8817302,87.8423855 92.5185754,88.4968737 L88.187215,96.2991843 L84.5556678,93.9577101 L80.9272378,100.501029 Z"
                          id="Fill-688" fill="#FFFFFF"></path>
                    <polygon id="Fill-690" fill="#768EBC"
                             points="10.1142487 268.632934 0.181265641 263.453262 1.84897188 260.238617 11.7819549 265.418289"></polygon>
                    <polygon id="Fill-692" fill="#768EBC"
                             points="24.1857929 275.970855 14.2528098 270.791183 15.920516 267.576537 25.8534991 272.75621"></polygon>
                    <g id="Group-696" transform="translate(430.963617, 0.000000)">
                        <mask id="mask-3" fill="white">
                            <use xlink:href="#path-2"></use>
                        </mask>
                        <g id="Clip-695"></g>
                        <path d="M2.19143951,6.61244398 C1.66463137,6.30941129 1.14249904,5.77363701 0.751289443,5.07228817 C-0.0202195191,3.70551704 0.00315954038,2.24971054 0.794930354,1.81859188 C5.37722601,-0.655654365 11.4027889,0.0097679201 17.7650103,3.69302085 C24.0290396,7.31691687 29.9875826,13.5134666 34.5496164,21.1439546 C35.3522974,22.4935434 35.3865867,23.9821525 34.6291052,24.472628 C33.8622721,24.9599796 32.5935684,24.2617548 31.792446,22.9231001 C27.9801007,16.5422315 22.9988024,11.3594354 17.7650103,8.33223256 C12.4501708,5.255045 7.41432139,4.6989644 3.58794866,6.77020842 C3.19518046,6.97951965 2.69175138,6.90298047 2.19143951,6.61244398"
                              id="Fill-694" fill="#FFFFFF" mask="url(#mask-3)"></path>
                    </g>
                    <path d="M439.783643,19.1848639 C439.28489,18.8927654 438.78302,18.3913556 438.394927,17.7321815 C437.598481,16.3810306 437.570426,14.8986697 438.337259,14.4160042 C441.088195,12.6946536 444.778969,13.0054964 448.728471,15.2969858 C452.483148,17.4650753 456.036765,21.1826928 458.734709,25.7672337 C459.531156,27.1183845 459.551417,28.6023075 458.781467,29.0756008 C458.014634,29.5551422 456.74593,28.8444212 455.949484,27.4917083 C454.001229,24.1864652 451.437325,21.4997837 448.728471,19.9330735 C445.882461,18.285138 443.214131,18.0602065 441.233145,19.3035777 C440.838818,19.5535016 440.31201,19.4878966 439.783643,19.1848639"
                          id="Fill-697" fill="#FFFFFF"></path>
                    <path d="M451.479252,32.2485404 C451.479252,34.0058176 450.249513,34.7181006 448.728316,33.838681 C447.213353,32.9623855 445.982055,30.8239744 445.983614,29.0666972 C445.982055,27.3094201 447.213353,26.5986991 448.731433,27.4749946 C450.249513,28.3559763 451.479252,30.4912633 451.479252,32.2485404"
                          id="Fill-699" fill="#FFFFFF"></path>
                </g>
                <g id="Group-728" transform="translate(21.775203, 445.167982)">
                    <g id="Group-704" transform="translate(3.123679, 9.338575)">
                        <mask id="mask-5" fill="white">
                            <use xlink:href="#path-4"></use>
                        </mask>
                        <g id="Clip-703"></g>
                        <path d="M498.306155,178.809296 L308.188113,288.184248 C305.776633,289.575696 302.581109,290.279202 299.399642,290.262081 L299.399642,280.967086 C296.190062,280.967086 292.964863,280.279144 290.537765,278.873688 L1.02581621,112.312413 C0.816529712,112.194125 0.607243214,112.058715 0.427631666,111.940427 C0.636918165,111.789453 0.877441454,111.641592 1.11796474,111.506183 L4.8210863,109.369205 L59.4604808,77.9371169 L191.234445,2.12967427 C196.063653,-0.650108352 203.968123,-0.650108352 208.79733,2.12967427 L340.555676,77.9371169 L422.761538,125.241671 L447.163719,139.27755 L494.482772,166.508836 L498.306155,168.704957 C498.517003,168.824802 498.712233,168.944648 498.891845,169.0785 C503.121306,171.858283 502.926077,176.149359 498.306155,178.809296"
                              id="Fill-702" fill="#47B7BF" mask="url(#mask-5)"></path>
                    </g>
                    <g id="Group-707" transform="translate(0.000000, 120.612228)">
                        <mask id="mask-7" fill="white">
                            <use xlink:href="#path-6"></use>
                        </mask>
                        <g id="Clip-706"></g>
                        <path d="M302.524102,169.692967 L302.524102,178.989518 C299.344197,178.989518 296.17991,178.301577 293.765306,176.911685 L4.24242475,10.3348458 C-0.349383505,7.69047253 -0.57272656,3.46009785 3.55052983,0.666307358 C3.73014138,0.78615241 3.93942788,0.920005325 4.15027621,1.03985038 L293.660663,167.599569 C296.089323,169.006581 299.31296,169.692967 302.524102,169.692967"
                              id="Fill-705" fill="#AFE3E1" mask="url(#mask-7)"></path>
                    </g>
                    <path d="M13.554893,127.062537 L0.641603684,125.568365 L0.611928732,117.422015 L0.627547128,117.422015 C0.896183529,118.811906 1.87233324,120.172225 3.55131075,121.278846 C3.7309223,121.397135 3.94020879,121.532544 4.15105713,121.650833 L13.554893,127.062537 Z"
                          id="Fill-708" fill="#AFE3E1"></path>
                    <path d="M504.95475,173.784364 L504.95475,183.918275 L494.590383,182.722937 L487.273164,181.870014 L465.419906,179.34393 L199.832215,148.615347 L78.5413183,134.581025 L24.5485254,128.333518 L13.5547368,127.061915 L4.15090095,121.651767 C3.94005261,121.533478 3.73076611,121.398069 3.55115457,121.27978 C1.87217706,120.173159 0.896027345,118.81284 0.627390944,117.421392 L7.37453776,118.184042 L154.148409,134.581025 L279.726555,148.615347 L498.655851,173.082415 L504.95475,173.784364 Z"
                          id="Fill-710" fill="#47B7BF"></path>
                    <g id="Group-714">
                        <mask id="mask-9" fill="white">
                            <use xlink:href="#path-8"></use>
                        </mask>
                        <g id="Clip-713"></g>
                        <path d="M504.95475,173.784364 C504.95475,175.427954 503.980162,177.087107 502.015368,178.417854 C501.80452,178.551707 501.581176,178.701124 501.340653,178.836534 L494.590383,182.722937 L311.224173,288.22705 C308.823626,289.587369 305.673395,290.290875 302.524727,290.304883 C299.313585,290.304883 296.089948,289.618498 293.661288,288.213042 L13.5547368,127.061915 L4.15090095,121.651767 C3.94005261,121.533478 3.73076611,121.398069 3.55115457,121.27978 C1.87217706,120.173159 0.896027345,118.81284 0.627390944,117.421392 C0.190075872,115.327995 1.37551208,113.147437 4.15090095,111.548985 L194.267381,2.15691179 C199.096589,-0.624427269 206.987002,-0.624427269 211.81621,2.15691179 L501.340653,168.732195 C503.755257,170.122086 504.95475,171.944665 504.95475,173.784364"
                              id="Fill-712" fill="#FFFFFF" mask="url(#mask-9)"></path>
                    </g>
                    <g id="Group-717" transform="translate(6.247358, 3.112858)">
                        <mask id="mask-11" fill="white">
                            <use xlink:href="#path-10"></use>
                        </mask>
                        <g id="Clip-716"></g>
                        <path d="M485.419261,176.232627 L300.58336,282.575655 C298.168756,283.979555 294.22355,283.979555 291.808946,282.575655 L106.973045,176.232627 L53.5612567,145.504045 L29.1606375,131.468166 L2.29855925,116.01438 C-0.130101234,114.607368 -0.130101234,112.352102 2.29855925,110.963767 L48.8679289,84.1651685 L192.400983,1.57013796 C194.829643,0.181803078 198.760793,0.181803078 201.189454,1.57013796 L344.738126,84.1651685 L426.956483,131.468166 L451.343046,145.504045 L490.698279,168.146978 C493.131625,169.535312 493.131625,171.807699 490.698279,173.19759 L485.419261,176.232627 Z"
                              id="Fill-715" fill="#77D7FF" mask="url(#mask-11)"></path>
                    </g>
                    <path d="M433.204622,134.581803 L35.4087766,134.581803 L8.54669834,119.12646 C6.11803785,117.721005 6.11803785,115.465739 8.54669834,114.075847 L55.1160679,87.2772488 L350.984703,87.2772488 L433.204622,134.581803 Z"
                          id="Fill-718" fill="#7EE4FF"></path>
                    <path d="M496.945637,176.310449 L491.666619,179.345486 L113.220403,179.345486 L59.8086148,148.616903 L457.590404,148.616903 L496.945637,171.259836 C499.378983,172.648171 499.378983,174.920558 496.945637,176.310449"
                          id="Fill-720" fill="#7EE4FF"></path>
                    <path d="M313.058866,174.516976 C311.139365,173.413467 310.033583,171.858594 310.227251,170.18232 C312.471614,150.274034 299.751993,130.78754 275.318575,116.728314 C251.747293,103.16559 220.35588,95.9920074 186.915334,96.5274191 C181.531673,96.6114662 177.053879,94.1709852 176.897695,91.0752474 C176.743073,87.9795097 180.989714,85.3958371 186.367128,85.3149028 C225.222572,84.6907747 261.700896,93.0285661 289.109619,108.793638 C317.511671,125.136145 332.294482,147.774408 329.681524,170.910729 C329.333234,174.001797 324.696133,176.34578 319.324966,176.145001 C316.861945,176.050058 314.667561,175.443051 313.058866,174.516976"
                          id="Fill-722" fill="#FFFFFF"></path>
                    <path d="M264.602326,169.329397 C262.853065,168.323944 261.764463,166.930939 261.748845,165.402526 C261.636392,154.493513 254.211407,144.253765 240.845185,136.563448 C227.806948,129.064572 210.450225,124.795287 191.976787,124.547815 C186.600935,124.474663 182.332428,121.908111 182.45269,118.806147 C182.58076,115.710409 187.052307,113.254364 192.431282,113.329073 C215.9479,113.645028 238.043244,119.080079 254.639351,128.631885 C271.655593,138.420269 281.100037,151.45692 281.248412,165.332487 C281.282772,168.428224 276.940858,170.957422 271.560321,170.976099 C268.839596,170.982325 266.384385,170.351971 264.602326,169.329397"
                          id="Fill-724" fill="#FFFFFF"></path>
                    <path d="M218.804036,160.57137 C213.565627,163.586173 205.069219,163.586173 199.833933,160.57137 C194.593962,157.556566 194.597085,152.670935 199.837057,149.660801 C205.069219,146.647554 213.556255,146.647554 218.793103,149.660801 C224.033075,152.675604 224.037761,157.559679 218.804036,160.57137"
                          id="Fill-726" fill="#FFFFFF"></path>
                </g>
            </g>
        </g>
    </g>
</svg>