<?xml version="1.0" encoding="UTF-8"?>
<svg width="152px" height="164px" viewBox="0 0 152 164" version="1.1" xmlns="http://www.w3.org/2000/svg"
     xmlns:xlink="http://www.w3.org/1999/xlink">
    <!-- Generator: Sketch 52.3 (67297) - http://www.bohemiancoding.com/sketch -->
    <title>Group 133</title>
    <desc>Created with Sketch.</desc>
    <defs>
        <filter x="-8.3%" y="-7.6%" width="116.7%" height="115.2%" filterUnits="objectBoundingBox" id="filter-1">
            <feOffset dx="0" dy="2" in="SourceAlpha" result="shadowOffsetOuter1"></feOffset>
            <feGaussianBlur stdDeviation="2" in="shadowOffsetOuter1" result="shadowBlurOuter1"></feGaussianBlur>
            <feColorMatrix values="0 0 0 0 0   0 0 0 0 0   0 0 0 0 0  0 0 0 0.2 0" type="matrix" in="shadowBlurOuter1"
                           result="shadowMatrixOuter1"></feColorMatrix>
            <feMerge>
                <feMergeNode in="shadowMatrixOuter1"></feMergeNode>
                <feMergeNode in="SourceGraphic"></feMergeNode>
            </feMerge>
        </filter>
        <polygon id="path-2" points="0 0.736266739 84.4327012 0.736266739 84.4327012 120.033098 0 120.033098"></polygon>
        <linearGradient x1="-6.76981091%" y1="-29.607571%" x2="105.735369%" y2="116.151656%" id="linearGradient-4">
            <stop stop-color="#7FFFD2" offset="0%"></stop>
            <stop stop-color="#69B4FF" offset="100%"></stop>
        </linearGradient>
        <polygon id="path-5"
                 points="0.2811 0.167475709 143.43285 0.167475709 143.43285 81.8803828 0.2811 81.8803828"></polygon>
    </defs>
    <g id="Page-1" stroke="none" stroke-width="1" fill="none" fill-rule="evenodd">
        <g id="1440" transform="translate(-220.000000, -1262.000000)">
            <g id="Feature-Cards" transform="translate(120.000000, 1241.000000)">
                <g id="Group-133" filter="url(#filter-1)" transform="translate(104.000000, 22.000000)">
                    <g id="Group-3">
                        <mask id="mask-3" fill="white">
                            <use xlink:href="#path-2"></use>
                        </mask>
                        <g id="Clip-2"></g>
                        <path d="M-0.000149766753,120.033098 L84.2642071,71.2051576 L84.4326954,4.12022124 C84.4371884,2.31659451 81.846962,1.35884301 79.8071306,0.884124823 C78.3551361,0.546228281 76.8297555,0.795682104 75.5365144,1.54404357 L3.54259706,43.1756189 C1.46532382,44.3767769 0.181068735,46.6067429 0.175078041,49.0234213 L-0.000149766753,120.033098 Z"
                              id="Fill-1" fill="#BEBEBE" mask="url(#mask-3)"></path>
                    </g>
                    <path d="M2.96907216,119.440191 L84.4507908,71.7861429 L84.6185469,4.05531793 C84.623766,2.09853486 82.5480645,0.870228101 80.8824334,1.84254267 L5.79035598,45.6688621 C4.15529377,46.6229458 3.14428403,48.3943814 3.13981054,50.3139431 L2.96907216,119.440191 Z"
                          id="Fill-4" fill="#333333"></path>
                    <polygon id="Fill-6" fill="url(#linearGradient-4)"
                             points="80.9072165 5.25837321 6.09377496 48.8792221 5.93814433 112.679426 80.9072165 68.9628105"></polygon>
                    <g id="Group-10" transform="translate(0.000000, 75.119617)">
                        <mask id="mask-6" fill="white">
                            <use xlink:href="#path-5"></use>
                        </mask>
                        <g id="Clip-9"></g>
                        <path d="M143.2806,32.4344117 C143.1741,32.3563221 77.75235,0.167475709 77.75235,0.167475709 L0.2811,45.330572 L61.2786,80.9705249 C63.35535,82.1835676 65.91435,82.1835676 67.99035,80.9712831 C67.99035,80.9712831 131.10435,44.0887196 141.8781,37.7808975 C142.84335,37.2153163 143.43285,36.1758903 143.43285,35.0477606 L143.2806,32.4344117 Z"
                              id="Fill-8" fill="#BEBEBE" mask="url(#mask-6)"></path>
                    </g>
                    <path d="M2.22680412,119.328004 L84.1017938,71.3636364 L142.003292,105.358207 C143.675879,106.340321 143.675879,108.79294 142.003292,109.775055 L66.6266389,154.02354 C64.9855539,154.987369 62.9634492,154.987369 61.3216142,154.02354 L2.22680412,119.328004 Z"
                          id="Fill-11" fill="#E6E6E3"></path>
                    <path d="M25.2371134,120.937516 L21.1770498,123.196172 C19.5350959,122.297053 18.7148659,121.847494 17.0721649,120.948375 C18.6961904,120.044189 19.5082031,119.592458 21.1322285,118.688995 C22.7741825,119.588114 23.5951594,120.037673 25.2371134,120.937516"
                          id="Fill-13" fill="#333333"></path>
                    <path d="M30.4329897,117.180811 C28.8089643,118.084998 27.9969515,118.536729 26.3721791,119.440191 C24.7309722,118.541073 23.9099952,118.091513 22.2680412,117.192394 C23.8920667,116.288208 24.7040794,115.836477 26.3281048,114.933014 C27.9700588,115.832133 28.7910357,116.281693 30.4329897,117.180811"
                          id="Fill-15" fill="#333333"></path>
                    <path d="M37.1134021,113.425193 C35.4893766,114.328511 34.6773639,114.780893 33.0525915,115.684211 C31.4113845,114.785236 30.5904076,114.335749 28.9484536,113.436051 C30.572479,112.532733 31.3844918,112.081075 33.0085172,111.177033 C34.6504711,112.076732 35.4714481,112.526219 37.1134021,113.425193"
                          id="Fill-17" fill="#333333"></path>
                    <path d="M43.0515464,109.669213 C41.427521,110.57253 40.6155082,111.024189 38.9907358,111.92823 C37.3495289,111.028531 36.5285519,110.579044 34.8865979,109.68007 C36.5106234,108.776029 37.3226361,108.32437 38.9474085,107.421053 C40.5886155,108.320027 41.4103395,108.769514 43.0515464,109.669213"
                          id="Fill-19" fill="#333333"></path>
                    <path d="M48.9896907,106.664428 C47.3650669,107.567745 46.5531285,108.020128 44.9292516,108.923445 C43.2874479,108.024471 42.467293,107.574983 40.8247423,106.675285 C42.4486191,105.771968 43.2613045,105.320309 44.8851814,104.416268 C46.5269851,105.315242 47.347887,105.765453 48.9896907,106.664428"
                          id="Fill-21" fill="#333333"></path>
                    <path d="M54.9278351,102.908447 C53.3038096,103.812488 52.4917969,104.264147 50.8670245,105.167464 C49.2250705,104.26849 48.4048406,103.819002 46.7628866,102.920028 C48.386912,102.015987 49.1989247,101.564328 50.8229502,100.660287 C52.4649041,101.559985 53.2858811,102.009473 54.9278351,102.908447"
                          id="Fill-23" fill="#333333"></path>
                    <path d="M60.8659794,99.9033013 C59.2413556,100.807197 58.4294171,101.258783 56.8055403,102.162679 C55.1637365,101.263126 54.3435816,100.813711 52.7010309,99.9141568 C54.3249078,99.0109845 55.1375932,98.5593984 56.76147,97.6555024 C58.4032738,98.5543325 59.2241756,99.0044712 60.8659794,99.9033013"
                          id="Fill-25" fill="#333333"></path>
                    <path d="M67.5463918,96.1476815 C65.9223663,97.0517226 65.1103536,97.5033812 63.4855812,98.4066986 C61.8443742,97.5070003 61.0233973,97.0575131 59.3814433,96.1585386 C61.0054687,95.2552213 61.8174814,94.8028388 63.4422539,93.8995215 C65.0834608,94.798496 65.9044378,95.2479832 67.5463918,96.1476815"
                          id="Fill-27" fill="#333333"></path>
                    <path d="M72.742268,92.3917006 C71.1176442,93.2957417 70.3057058,93.7474004 68.6818289,94.6507177 C67.0400252,93.7510194 66.2198703,93.3015322 64.5773196,92.4025578 C66.2011964,91.4992405 67.0138818,91.046858 68.6377587,90.1435407 C70.2795624,91.0425151 71.1004643,91.4920023 72.742268,92.3917006"
                          id="Fill-29" fill="#333333"></path>
                    <path d="M79.4226804,88.6357197 C77.7980566,89.5397609 76.9861182,89.9914195 75.3622413,90.8947368 C73.7204376,89.9950386 72.9002827,89.5455514 71.257732,88.6465769 C72.8823558,87.7432596 73.6942942,87.2908771 75.3181711,86.3875598 C76.9599748,87.2865343 77.7808767,87.7360215 79.4226804,88.6357197"
                          id="Fill-31" fill="#333333"></path>
                    <path d="M85.3608247,85.630935 C83.7362009,86.5342524 82.9242625,86.985911 81.3003856,87.8899522 C79.6585819,86.9902539 78.838427,86.5407667 77.1958763,85.6417922 C78.8205001,84.7377511 79.6324385,84.2860924 81.2563154,83.3827751 C82.8973722,84.2817496 83.719021,84.7312368 85.3608247,85.630935"
                          id="Fill-33" fill="#333333"></path>
                    <path d="M91.2989691,82.6261504 C89.6749436,83.5301915 88.8629309,83.9818501 87.2389055,84.8851675 C85.5969515,83.9854692 84.7767216,83.535982 83.1340206,82.6370075 C84.758046,81.7336902 85.5700588,81.2813077 87.1940842,80.3779904 C88.8360381,81.2769649 89.6570151,81.7271759 91.2989691,82.6261504"
                          id="Fill-35" fill="#333333"></path>
                    <path d="M30.4329897,123.94194 C28.8091128,124.845257 27.9971744,125.29764 26.3732975,126.200957 C24.7314938,125.301982 23.9105919,124.851771 22.2680412,123.952797 C23.8919181,123.04948 24.7038565,122.597097 26.3284803,121.69378 C27.9702841,122.592754 28.7911859,123.042965 30.4329897,123.94194"
                          id="Fill-37" fill="#333333"></path>
                    <path d="M37.1134021,120.185959 C35.4887783,121.089276 34.6768398,121.541659 33.052963,122.444976 C31.4111592,121.545278 30.5910043,121.095791 28.9484536,120.196816 C30.5723305,119.292775 31.3842689,118.841116 33.0081458,117.937799 C34.6499495,118.836773 35.4715983,119.286261 37.1134021,120.185959"
                          id="Fill-39" fill="#333333"></path>
                    <path d="M43.0515464,117.181537 C41.4269226,118.084709 40.6149842,118.536295 38.9911073,119.440191 C37.3493036,118.540638 36.5291486,118.091223 34.8865979,117.191669 C36.5104748,116.288496 37.3224132,115.83691 38.9462901,114.933014 C40.5880938,115.832568 41.4097427,116.281983 43.0515464,117.181537"
                          id="Fill-41" fill="#333333"></path>
                    <path d="M48.9896907,113.425193 C47.3658139,114.328511 46.5531285,114.780893 44.9292516,115.684211 C43.2874479,114.785236 42.467293,114.335749 40.8247423,113.436051 C42.4486191,112.532733 43.2605576,112.080351 44.8851814,111.177033 C46.5269851,112.076008 47.347887,112.526219 48.9896907,113.425193"
                          id="Fill-43" fill="#333333"></path>
                    <path d="M54.9278351,109.668852 C53.3039582,110.572748 52.4920198,111.024334 50.867396,111.92823 C49.2263392,111.028676 48.4054373,110.579261 46.7628866,109.680431 C48.3875104,108.776535 49.1994488,108.324949 50.8233257,107.421053 C52.4651294,108.320606 53.2860313,108.770021 54.9278351,109.668852"
                          id="Fill-45" fill="#333333"></path>
                    <path d="M60.8659794,106.664428 C59.2421025,107.567745 58.4294171,108.019404 56.8055403,108.923445 C55.1637365,108.024471 54.3435816,107.574259 52.7010309,106.675285 C54.3249078,105.771244 55.1368462,105.319585 56.76147,104.416268 C58.4032738,105.315242 59.2241756,105.76473 60.8659794,106.664428"
                          id="Fill-47" fill="#333333"></path>
                    <path d="M66.8041237,102.908447 C65.1802469,103.812488 64.3683084,104.264147 62.7436846,105.167464 C61.1026278,104.26849 60.281726,103.819002 58.6391753,102.919304 C60.2637991,102.015987 61.0757375,101.564328 62.6996144,100.660287 C64.3414181,101.559985 65.16232,102.009473 66.8041237,102.908447"
                          id="Fill-49" fill="#333333"></path>
                    <path d="M72.742268,99.1521052 C71.1183912,100.056001 70.3057058,100.507587 68.6818289,101.411483 C67.0400252,100.511206 66.2198703,100.061791 64.5773196,99.1629606 C66.2011964,98.2590646 67.0131349,97.8074785 68.6377587,96.9043062 C70.2795624,97.8031363 71.1004643,98.2525514 72.742268,99.1521052"
                          id="Fill-51" fill="#333333"></path>
                    <path d="M79.4226804,96.1476815 C77.7988036,97.0517226 76.9868651,97.5033812 75.3622413,98.4066986 C73.7211845,97.5070003 72.9002827,97.0575131 71.257732,96.1585386 C72.8823558,95.2544975 73.6942942,94.8028388 75.3181711,93.8995215 C76.9599748,94.798496 77.7808767,95.2479832 79.4226804,96.1476815"
                          id="Fill-53" fill="#333333"></path>
                    <path d="M84.6185567,92.3917006 C82.9945313,93.2957417 82.1825186,93.7474004 80.5584931,94.6507177 C78.9165392,93.7510194 78.0955622,93.3015322 76.4536082,92.4025578 C78.0776337,91.4985166 78.8896464,91.046858 80.5136718,90.1435407 C82.1556258,91.0425151 82.9773498,91.4920023 84.6185567,92.3917006"
                          id="Fill-55" fill="#333333"></path>
                    <path d="M91.2989691,88.6360825 C89.6749436,89.5392547 88.8629309,89.9908409 87.2389055,90.8947368 C85.5969515,89.995183 84.7767216,89.545768 83.1340206,88.6462142 C84.758046,87.7430419 85.5700588,87.2914558 87.1940842,86.3875598 C88.8360381,87.2871136 89.6570151,87.7365287 91.2989691,88.6360825"
                          id="Fill-57" fill="#333333"></path>
                    <path d="M97.2371134,85.1497391 C94.4579911,86.8466191 93.0691922,87.6954645 90.2915944,89.3923445 C88.6154315,88.384594 87.7777312,87.8811241 86.1030928,86.8733736 C88.8806906,85.1764936 90.2694895,84.3284589 93.0486118,82.6315789 C94.7232502,83.6385187 95.5617128,84.1427994 97.2371134,85.1497391"
                          id="Fill-59" fill="#333333"></path>
                    <path d="M40.0824742,125.729217 C37.3144958,127.419816 35.9297399,128.265523 33.1625282,129.956938 C31.4764383,128.942415 30.6337767,128.435969 28.9484536,127.422262 C31.716432,125.732479 33.1004212,124.886771 35.8683996,123.196172 C37.5537228,124.209879 38.3971511,124.716325 40.0824742,125.729217"
                          id="Fill-61" fill="#333333"></path>
                    <path d="M42.3092784,123.942664 L38.2492148,126.200957 C36.6072608,125.301982 35.7870309,124.852495 34.1443299,123.952797 C35.7683553,123.04948 36.580368,122.597821 38.2043935,121.69378 C39.8463474,122.593478 40.6680714,123.042965 42.3092784,123.942664"
                          id="Fill-63" fill="#333333"></path>
                    <path d="M48.9896907,120.185959 C47.3650669,121.09 46.5531285,121.541659 44.9292516,122.444976 C43.2874479,121.546002 42.467293,121.096514 40.8247423,120.196816 C42.4486191,119.293499 43.2605576,118.841116 44.8844344,117.937799 C46.5262382,118.837497 47.347887,119.286985 48.9896907,120.185959"
                          id="Fill-65" fill="#333333"></path>
                    <path d="M54.9278351,116.429978 C53.3039582,117.333295 52.4912728,117.784954 50.867396,118.688995 C49.2255922,117.789297 48.4054373,117.33981 46.7628866,116.440835 C48.3867635,115.536794 49.1987019,115.085135 50.8233257,114.181818 C52.4651294,115.080793 53.2860313,115.53028 54.9278351,116.429978"
                          id="Fill-67" fill="#333333"></path>
                    <path d="M60.1237113,113.425193 C58.4998345,114.329235 57.6878961,114.780893 56.0632722,115.684211 C54.4222155,114.785236 53.6013136,114.335749 51.9587629,113.436051 C53.5826397,112.532733 54.3953251,112.080351 56.019202,111.177033 C57.6610057,112.076008 58.4819076,112.526219 60.1237113,113.425193"
                          id="Fill-69" fill="#333333"></path>
                    <path d="M66.8041237,109.668852 C65.1794999,110.572748 64.3675615,111.024334 62.7436846,111.92823 C61.1018809,111.028676 60.281726,110.579261 58.6391753,109.680431 C60.2630521,108.776535 61.0749905,108.324949 62.6996144,107.421053 C64.3406711,108.320606 65.16232,108.770021 66.8041237,109.668852"
                          id="Fill-71" fill="#333333"></path>
                    <path d="M72.742268,106.664428 C71.1183912,107.567745 70.3064528,108.019404 68.6818289,108.923445 C67.0407722,108.023747 66.2198703,107.574259 64.5773196,106.675285 C66.2011964,105.771244 67.0138818,105.319585 68.6377587,104.416268 C70.2795624,105.315242 71.1004643,105.76473 72.742268,106.664428"
                          id="Fill-73" fill="#333333"></path>
                    <path d="M78.6804124,102.908447 C77.0557886,103.812488 76.2438501,104.264147 74.6199733,105.167464 C72.9781695,104.26849 72.1580146,103.819002 70.5154639,102.919304 C72.1393408,102.015987 72.9512792,101.563604 74.575903,100.660287 C76.2169598,101.559262 77.0386086,102.009473 78.6804124,102.908447"
                          id="Fill-75" fill="#333333"></path>
                    <path d="M84.6185567,99.1521052 C82.9946798,100.056001 82.1827414,100.507587 80.5581176,101.411483 C78.9163139,100.511206 78.0961589,100.061791 76.4536082,99.1629606 C78.0774851,98.2590646 78.8901705,97.8074785 80.5140473,96.9043062 C82.1558511,97.8031363 82.976753,98.2525514 84.6185567,99.1521052"
                          id="Fill-77" fill="#333333"></path>
                    <path d="M91.2989691,95.3964853 C89.6750922,96.3005264 88.8631538,96.7521851 87.2392769,97.6555024 C85.5974732,96.7565279 84.7765713,96.3063169 83.1340206,95.4073425 C84.7586444,94.5033013 85.5705829,94.0516427 87.1944597,93.1483254 C88.8362635,94.0472998 89.6571653,94.4975108 91.2989691,95.3964853"
                          id="Fill-79" fill="#333333"></path>
                    <path d="M96.4948454,92.3917006 C94.8709685,93.2950179 94.0590301,93.7474004 92.4351532,94.6507177 C90.7933495,93.7510194 89.9724476,93.3015322 88.3298969,92.401834 C89.9545207,91.4985166 90.7664591,91.046858 92.390336,90.1435407 C94.0321397,91.0425151 94.8530416,91.4920023 96.4948454,92.3917006"
                          id="Fill-81" fill="#333333"></path>
                    <path d="M102.43299,88.6360825 C100.809113,89.5392547 99.9971744,89.9915646 98.3725506,90.8947368 C96.7314938,89.995183 95.9105919,89.545768 94.2680412,88.6462142 C95.8919181,87.7430419 96.7038565,87.2914558 98.3277334,86.3875598 C99.9695371,87.2871136 100.791186,87.7365287 102.43299,88.6360825"
                          id="Fill-83" fill="#333333"></path>
                    <path d="M42.3092784,130.702705 C40.6854015,131.606747 39.8734631,132.058405 38.2488393,132.961722 C36.6077825,132.062748 35.7868806,131.613261 34.1443299,130.713563 C35.7682068,129.810245 36.5801452,129.358587 38.204769,128.454545 C39.8465727,129.354244 40.6674746,129.803731 42.3092784,130.702705"
                          id="Fill-85" fill="#333333"></path>
                    <path d="M48.9896907,127.697921 C47.3656653,128.601962 46.5536526,129.05362 44.9296271,129.956938 C43.2876732,129.057963 42.4674432,128.607752 40.8247423,127.708778 C42.4487677,126.805461 43.2607804,126.353802 44.8848058,125.449761 C46.5267598,126.349459 47.3484838,126.798946 48.9896907,127.697921"
                          id="Fill-87" fill="#333333"></path>
                    <path d="M54.185567,123.94194 C52.5609432,124.845257 51.7490048,125.296916 50.1251279,126.200957 C48.4833242,125.301259 47.6631693,124.851771 46.0206186,123.952797 C47.6444954,123.048756 48.4564338,122.597097 50.0803107,121.69378 C51.7221144,122.592754 52.5437633,123.042242 54.185567,123.94194"
                          id="Fill-89" fill="#333333"></path>
                    <path d="M60.1237113,120.185959 C58.4990875,121.09 57.6871491,121.541659 56.0632722,122.444976 C54.4214685,121.546002 53.6013136,121.096514 51.9587629,120.196816 C53.5826397,119.293499 54.3945782,118.84184 56.019202,117.937799 C57.6610057,118.837497 58.4819076,119.286985 60.1237113,120.185959"
                          id="Fill-91" fill="#333333"></path>
                    <path d="M66.8041237,116.429978 C65.1802469,117.333295 64.3683084,117.784954 62.7436846,118.688995 C61.1026278,117.789297 60.281726,117.33981 58.6391753,116.440835 C60.2630521,115.536794 61.0757375,115.085135 62.6996144,114.181818 C64.3414181,115.080793 65.16232,115.53028 66.8041237,116.429978"
                          id="Fill-93" fill="#333333"></path>
                    <path d="M72,112.673997 C70.3753762,113.578038 69.5634378,114.029697 67.9395609,114.933014 C66.2977572,114.03404 65.4776022,113.584553 63.8350515,112.684854 C65.4589284,111.781537 66.2708668,111.329878 67.8954906,110.425837 C69.5372944,111.324812 70.3581963,111.775023 72,112.673997"
                          id="Fill-95" fill="#333333"></path>
                    <path d="M78.6804124,109.668852 C77.0565355,110.572748 76.2445971,111.024334 74.6199733,111.92823 C72.9789165,111.028676 72.1580146,110.579261 70.5154639,109.680431 C72.1400877,108.776535 72.9520262,108.324949 74.575903,107.421053 C76.2177068,108.320606 77.0386086,108.770021 78.6804124,109.668852"
                          id="Fill-97" fill="#333333"></path>
                    <path d="M84.6185567,106.664428 C82.9946798,107.567745 82.1819945,108.020128 80.5581176,108.923445 C78.9163139,108.024471 78.0961589,107.574259 76.4536082,106.675285 C78.0774851,105.771244 78.8894235,105.319585 80.5140473,104.416268 C82.1558511,105.315242 82.976753,105.76473 84.6185567,106.664428"
                          id="Fill-99" fill="#333333"></path>
                    <path d="M89.814433,102.908447 C88.1905561,103.812488 87.3786177,104.264147 85.7539939,105.167464 C84.1121901,104.26849 83.2920352,103.819002 81.6494845,102.919304 C83.2733614,102.015987 84.0860468,101.563604 85.7099236,100.660287 C87.3517274,101.559262 88.1726292,102.009473 89.814433,102.908447"
                          id="Fill-101" fill="#333333"></path>
                    <path d="M96.4948454,99.1524661 C94.8709685,100.055783 94.0590301,100.508166 92.4351532,101.411483 C90.7933495,100.511785 89.9724476,100.062298 88.3298969,99.1633233 C89.9545207,98.2592822 90.7664591,97.8076235 92.390336,96.9043062 C94.0321397,97.8032807 94.8530416,98.2527679 96.4948454,99.1524661"
                          id="Fill-103" fill="#333333"></path>
                    <path d="M105.402062,93.4502848 C102.647946,95.1320427 101.272049,95.9737445 98.5187065,97.6555024 C96.8179764,96.6336123 95.9687714,96.1226673 94.2680412,95.0999544 C97.0213834,93.4173737 98.3980544,92.5764948 101.15217,90.8947368 C102.852127,91.9166269 103.702105,92.427572 105.402062,93.4502848"
                          id="Fill-105" fill="#333333"></path>
                    <path d="M109.113402,91.6405044 C107.489525,92.5445456 106.677587,92.9962042 105.052963,93.8995215 C103.411906,92.9998233 102.591004,92.5503361 100.948454,91.6513616 C102.57233,90.7473205 103.384269,90.2956618 105.008146,89.3923445 C106.649949,90.2913189 107.471598,90.7408062 109.113402,91.6405044"
                          id="Fill-107" fill="#333333"></path>
                    <path d="M48.9896907,134.458686 C47.3656653,135.362004 46.5536526,135.813662 44.9296271,136.717703 C43.2876732,135.818729 42.4674432,135.368518 40.8247423,134.469543 C42.4487677,133.566226 43.2607804,133.114567 44.8848058,132.210526 C46.5267598,133.110225 47.3484838,133.559712 48.9896907,134.458686"
                          id="Fill-109" fill="#333333"></path>
                    <path d="M54.9278351,130.702705 C53.3038096,131.606023 52.4910499,132.057681 50.8670245,132.961722 C49.2258175,132.062024 48.4048406,131.612537 46.7628866,130.713563 C48.386912,129.810245 49.1989247,129.357863 50.8229502,128.454545 C52.4649041,129.35352 53.2858811,129.803007 54.9278351,130.702705"
                          id="Fill-111" fill="#333333"></path>
                    <path d="M60.8659794,127.697558 C59.2421025,128.601744 58.4294171,129.053475 56.8055403,129.956938 C55.1644835,129.057819 54.3435816,128.60826 52.7010309,127.709141 C54.3256547,126.804954 55.1375932,126.353223 56.76147,125.449761 C58.4032738,126.34888 59.2241756,126.798439 60.8659794,127.697558"
                          id="Fill-113" fill="#333333"></path>
                    <path d="M97.2371134,106.728593 C85.755654,113.219629 74.2749508,119.709921 62.7934915,126.200957 C61.1322187,125.276325 60.3004481,124.814009 58.6391753,123.888632 C70.1198785,117.397596 81.6005817,110.90656 93.082041,104.416268 C94.74407,105.3409 95.5750844,105.803961 97.2371134,106.728593"
                          id="Fill-115" fill="#333333"></path>
                    <path d="M102.43299,102.908447 C100.808366,103.812488 99.9964274,104.264147 98.3725506,105.167464 C96.7307468,104.26849 95.9105919,103.819002 94.2680412,102.920028 C95.892665,102.015987 96.7046035,101.564328 98.3284803,100.660287 C99.9702841,101.559985 100.791186,102.009473 102.43299,102.908447"
                          id="Fill-117" fill="#333333"></path>
                    <path d="M109.113402,99.1524661 C107.489377,100.056507 106.677364,100.508166 105.053338,101.411483 C103.411385,100.512509 102.591155,100.062298 100.948454,99.1633233 C102.573226,98.260006 103.385239,97.8076235 105.009264,96.9043062 C106.651218,97.8040045 107.472195,98.2534917 109.113402,99.1524661"
                          id="Fill-119" fill="#333333"></path>
                    <path d="M115.051546,96.1476815 C113.427521,97.0517226 112.615508,97.5033812 110.991483,98.4066986 C109.349529,97.5070003 108.529299,97.0575131 106.886598,96.1585386 C108.510623,95.2552213 109.322636,94.8028388 110.946662,93.8995215 C112.588615,94.798496 113.409592,95.248707 115.051546,96.1476815"
                          id="Fill-121" fill="#333333"></path>
                    <polygon id="Fill-123" fill="#BEBEBE"
                             points="69.7731959 127.506564 97.6419192 111.177033 113.56701 121.134083 85.7087038 137.4689"></polygon>
                    <path d="M45.7676074,59.8453073 C42.8707723,61.68294 40.0874801,65.3710717 38.219253,69.7380982 C37.6866477,70.9816033 37.7471541,72.318201 38.3484826,72.7374961 C38.6271107,72.9327635 38.973715,72.8979484 39.3188253,72.6845166 C39.717719,72.4377833 40.1151188,71.9518854 40.4027107,71.2941825 C41.7353445,68.2531578 43.6849936,65.6942468 45.707848,64.4212245 C47.7307024,63.1482022 49.6273152,63.2844353 50.8919727,64.7845127 C51.1661187,65.1092015 51.5530606,65.1197974 51.9474724,64.8753347 C52.2888477,64.6641735 52.636199,64.2607722 52.920056,63.700703 C53.5318425,62.492013 53.6199875,60.9987473 53.1165149,60.37813 C51.3491318,58.198401 48.6636955,58.0084315 45.7676074,59.8453073"
                          id="Fill-125" fill="#FFFFFF"></path>
                    <path d="M45.5447928,49.4135121 C40.6174441,52.4564434 35.9735537,58.511209 33.0062886,65.8508016 C32.4921436,67.1250101 32.5569771,68.5205717 33.1555565,68.9695785 C33.4322298,69.1766374 33.7737367,69.1470576 34.1144897,68.9316557 C34.5132913,68.6806062 34.9105852,68.1754736 35.1940435,67.4928619 C37.6818419,61.5025651 41.4889275,56.4868861 45.4852364,53.9809428 C49.4807915,51.4749994 53.1001614,51.7222566 55.4349225,54.7416756 C55.7010416,55.0860153 56.0817501,55.1072521 56.4662281,54.8637872 C56.7964268,54.6559699 57.1288871,54.253229 57.3995294,53.692729 C57.9860467,52.4746463 58.0621885,50.9698668 57.5834757,50.3289703 C54.8235272,46.6345241 50.4728954,46.3705809 45.5447928,49.4135121"
                          id="Fill-127" fill="#FFFFFF"></path>
                    <path d="M61.301694,42.0384623 C57.9480564,37.3521068 52.3852468,37.1661283 45.7660075,41.0219809 C37.9007229,45.6036765 32.4447602,53.54729 29.2807382,61.9622498 C28.809709,63.2151571 28.8360445,64.6668431 29.3815656,65.1758367 C29.6366437,65.4130157 29.9586892,65.4054862 30.2814872,65.2006841 C30.6531939,64.9672698 31.0090993,64.4356877 31.2942752,63.8009516 C34.4229323,56.835419 38.5583579,49.4941648 45.7050596,45.2723789 C51.4176054,41.8976608 56.3521252,42.0557801 59.4281114,46.173659 C59.6756651,46.5057096 60.0225412,46.5350746 60.3679125,46.3159664 C60.6688896,46.1239644 60.9683618,45.7422192 61.2038764,45.2083782 C61.709518,44.0616366 61.7396157,42.6506099 61.301694,42.0384623"
                          id="Fill-129" fill="#FFFFFF"></path>
                    <path d="M44.5826966,70.1478904 C43.3418369,70.9613849 42.3229624,73.224349 42.3094175,75.1176169 C42.2958727,77.0100705 43.2726076,77.8536944 44.49014,77.0972016 C45.708425,76.3398944 46.7257945,74.2169914 46.7619141,72.2683505 C46.7980337,70.3180809 45.8235563,69.3343959 44.5826966,70.1478904"
                          id="Fill-131" fill="#FFFFFF"></path>
                </g>
            </g>
        </g>
    </g>
</svg>