<?xml version="1.0" encoding="UTF-8"?>
<svg width="112px" height="98px" viewBox="0 0 112 98" version="1.1" xmlns="http://www.w3.org/2000/svg"
     xmlns:xlink="http://www.w3.org/1999/xlink">
    <!-- Generator: Sketch 52.3 (67297) - http://www.bohemiancoding.com/sketch -->
    <title>Group 33</title>
    <desc>Created with Sketch.</desc>
    <defs>
        <filter x="-11.4%" y="-13.2%" width="122.9%" height="126.4%" filterUnits="objectBoundingBox" id="filter-1">
            <feOffset dx="0" dy="2" in="SourceAlpha" result="shadowOffsetOuter1"></feOffset>
            <feGaussianBlur stdDeviation="2" in="shadowOffsetOuter1" result="shadowBlurOuter1"></feGaussianBlur>
            <feColorMatrix values="0 0 0 0 0   0 0 0 0 0   0 0 0 0 0  0 0 0 0.2 0" type="matrix" in="shadowBlurOuter1"
                           result="shadowMatrixOuter1"></feColorMatrix>
            <feMerge>
                <feMergeNode in="shadowMatrixOuter1"></feMergeNode>
                <feMergeNode in="SourceGraphic"></feMergeNode>
            </feMerge>
        </filter>
        <polygon id="path-2"
                 points="0.150635789 0.231215625 103.896 0.231215625 103.896 61.4998055 0.150635789 61.4998055"></polygon>
        <polygon id="path-4"
                 points="0.150635789 0.647955804 103.896 0.647955804 103.896 61.9161288 0.150635789 61.9161288"></polygon>
        <polygon id="path-6"
                 points="0.182852331 0.647955804 61.5531429 0.647955804 61.5531429 61.8975094 0.182852331 61.8975094"></polygon>
        <polygon id="path-8" points="0 0.419582339 103.819971 0.419582339 103.819971 62.6759093 0 62.6759093"></polygon>
        <linearGradient x1="50%" y1="0%" x2="50%" y2="100%" id="linearGradient-10">
            <stop stop-color="#626262" offset="0%"></stop>
            <stop stop-color="#333333" offset="100%"></stop>
        </linearGradient>
    </defs>
    <g id="Page-1" stroke="none" stroke-width="1" fill="none" fill-rule="evenodd">
        <g id="1440" transform="translate(-667.000000, -1316.000000)">
            <g id="Feature-Cards" transform="translate(120.000000, 1241.000000)">
                <g id="Group-33" filter="url(#filter-1)" transform="translate(551.000000, 77.000000)">
                    <path d="M8.91428571,59.25 C7.27394012,59.25 5.94285714,57.8335634 5.94285714,56.0855493 L5.94285714,3.1644507 C5.94285714,1.41532394 7.27394012,0 8.91428571,0 C10.5556761,0 11.8857143,1.41532394 11.8857143,3.1644507 L11.8857143,56.0855493 C11.8857143,57.8335634 10.5556761,59.25 8.91428571,59.25"
                          id="Fill-1" fill="#333333"></path>
                    <g id="Group-5" transform="translate(0.000000, 28.500000)">
                        <mask id="mask-3" fill="white">
                            <use xlink:href="#path-2"></use>
                        </mask>
                        <g id="Clip-4"></g>
                        <path d="M103.711646,20.7948362 C103.581373,20.7003496 56.6992674,0.231215625 56.6992674,0.231215625 L0.150635789,35.1923719 L0.150635789,35.9660504 C0.150635789,37.3210996 0.864404211,38.5738808 2.02044632,39.2519612 L38.1566147,60.3880594 C40.6821726,61.8698317 43.7956042,61.8709433 46.3211621,60.3880594 C46.3211621,60.3880594 88.8998568,35.0345237 102.003857,27.3277513 C103.179604,26.6363317 103.896657,25.3657647 103.896657,23.9884835 L103.711646,20.7948362 Z"
                              id="Fill-3" fill="#333333" mask="url(#mask-3)"></path>
                    </g>
                    <path d="M103.999854,44.2620743 L102.46891,46.4254035 L64.6181338,24 L0,56.2757625 L0,63.74535 L37.5377786,85.353126 C39.5409649,86.5224332 43.2431255,86.6389202 45.8854864,85.1611999 L102.46891,51.7838036 C103.592408,51.1281484 104.097597,49.9322156 103.984479,48.7906434 C103.892227,47.8576384 103.999854,44.2620743 103.999854,44.2620743"
                          id="Fill-6" fill="#E6E6E3"></path>
                    <g id="Group-10" transform="translate(0.000000, 21.000000)">
                        <mask id="mask-5" fill="white">
                            <use xlink:href="#path-4"></use>
                        </mask>
                        <g id="Clip-9"></g>
                        <path d="M103.711646,10.0943933 C103.581373,9.99879509 56.6992674,0.647955804 56.6992674,0.647955804 L0.150635789,20.6302058 L0.150635789,38.8961344 L38.1566147,60.8047996 C40.6821726,62.2865719 43.7956042,62.2865719 46.3211621,60.8047996 C46.3211621,60.8047996 88.8998568,35.4512638 102.003857,27.7433799 C103.179604,27.0530719 103.896657,25.7825049 103.896657,24.4041121 L103.711646,10.0943933 Z"
                              id="Fill-8" fill="#CBCBCB" mask="url(#mask-5)"></path>
                    </g>
                    <g id="Group-13" transform="translate(42.342857, 21.000000)">
                        <mask id="mask-7" fill="white">
                            <use xlink:href="#path-6"></use>
                        </mask>
                        <g id="Clip-12"></g>
                        <path d="M61.3687892,10.0943933 C61.2385155,9.99879509 14.3564102,0.647955804 14.3564102,0.647955804 L0.182852331,5.65574598 L0.182852331,61.8975094 C1.49653654,61.8508219 2.80146286,61.4951076 3.97830496,60.8047996 C3.97830496,60.8047996 46.5569997,35.4512638 59.6609997,27.7433799 C60.8367471,27.0530719 61.5537997,25.7825049 61.5537997,24.4041121 L61.3687892,10.0943933 Z"
                              id="Fill-11" fill="#8F8F8F" mask="url(#mask-7)"></path>
                    </g>
                    <g id="Group-16" transform="translate(0.000000, 6.000000)">
                        <mask id="mask-9" fill="white">
                            <use xlink:href="#path-8"></use>
                        </mask>
                        <g id="Clip-15"></g>
                        <path d="M1.68622316,34.2823895 L57.6469811,1.66165263 C60.5042442,-0.00287368421 64.0249179,0.00596842105 66.8734232,1.68596842 L102.293634,22.5699158 C104.328749,23.7580737 104.328749,26.7223895 102.293634,27.9083368 L44.8035284,61.8023368 C42.8078232,62.9672842 40.3468547,62.9672842 38.3511495,61.8012316 L1.67089684,40.1712316 C-0.564555789,38.8537579 -0.555797895,35.5888105 1.68622316,34.2823895"
                              id="Fill-14" fill="#E6E6E3" mask="url(#mask-9)"></path>
                    </g>
                    <polygon id="Fill-17" fill="url(#linearGradient-10)"
                             points="52 67.7760023 98.8 39.75 98.8 46.058281 52 74.25"></polygon>
                    <polygon id="Fill-19" fill="#8F8F8F"
                             points="57.9428571 14.030871 61.483141 12 78.7428571 21.9459757 75.1615104 24"></polygon>
                    <polygon id="Fill-21" fill="#8F8F8F"
                             points="49.7714286 18.530871 53.3117124 16.5 70.5714286 26.4459757 66.9900819 28.5"></polygon>
                    <polygon id="Fill-23" fill="#8F8F8F"
                             points="42.3428571 23.030871 45.883141 21 63.1428571 30.9459757 59.5615104 33"></polygon>
                    <polygon id="Fill-25" fill="#8F8F8F"
                             points="34.9142857 26.780871 38.4545696 24.75 55.7142857 34.6959757 52.132939 36.75"></polygon>
                    <polygon id="Fill-27" fill="#8F8F8F"
                             points="26.7428571 31.280871 30.283141 29.25 47.5428571 39.1959757 43.9615104 41.25"></polygon>
                    <polygon id="Fill-29" fill="#8F8F8F"
                             points="19.3142857 35.780871 22.8545696 33.75 40.1142857 43.6959757 36.532939 45.75"></polygon>
                    <polygon id="Fill-31" fill="#8F8F8F"
                             points="11.8857143 40.280871 15.4259981 38.25 32.6857143 48.1959757 29.1043676 50.25"></polygon>
                </g>
            </g>
        </g>
    </g>
</svg>