<?xml version="1.0" encoding="UTF-8"?>
<svg width="148px" height="99px" viewBox="0 0 148 99" version="1.1" xmlns="http://www.w3.org/2000/svg"
     xmlns:xlink="http://www.w3.org/1999/xlink">
    <!-- Generator: Sketch 52.3 (67297) - http://www.bohemiancoding.com/sketch -->
    <title>Group 29</title>
    <desc>Created with Sketch.</desc>
    <defs>
        <filter x="-8.6%" y="-13.2%" width="117.1%" height="126.4%" filterUnits="objectBoundingBox" id="filter-1">
            <feOffset dx="0" dy="2" in="SourceAlpha" result="shadowOffsetOuter1"></feOffset>
            <feGaussianBlur stdDeviation="2" in="shadowOffsetOuter1" result="shadowBlurOuter1"></feGaussianBlur>
            <feColorMatrix values="0 0 0 0 0   0 0 0 0 0   0 0 0 0 0  0 0 0 0.2 0" type="matrix" in="shadowBlurOuter1"
                           result="shadowMatrixOuter1"></feColorMatrix>
            <feMerge>
                <feMergeNode in="shadowMatrixOuter1"></feMergeNode>
                <feMergeNode in="SourceGraphic"></feMergeNode>
            </feMerge>
        </filter>
        <linearGradient x1="-61.1296447%" y1="-43.431174%" x2="105.735369%" y2="116.151656%" id="linearGradient-2">
            <stop stop-color="#7FFFD2" offset="0%"></stop>
            <stop stop-color="#69B4FF" offset="100%"></stop>
        </linearGradient>
    </defs>
    <g id="Page-1" stroke="none" stroke-width="1" fill="none" fill-rule="evenodd">
        <g id="1440" transform="translate(-1069.000000, -1316.000000)">
            <g id="Feature-Cards" transform="translate(120.000000, 1241.000000)">
                <g id="Group-29" filter="url(#filter-1)" transform="translate(953.000000, 77.000000)">
                    <path d="M139.675267,54.611932 C139.445382,54.4440893 35.8701069,6.76859504 35.8701069,6.76859504 L7.58942207,22.7527671 L0,31.3681528 L0.00482276344,37.0194025 C0.00643035126,39.3072787 1.21051362,41.420794 3.16373282,42.5663616 L82.554457,89.0457724 C87.0042601,91.6514092 92.4893497,91.6514092 96.9407604,89.0457724 C96.9407604,89.0457724 113.574472,79.6596137 136.66747,66.1034583 C138.736436,64.8878204 140,62.6537191 140,60.2273319 L139.675267,54.611932 Z"
                          id="Fill-1" fill="#BEBEBE"></path>
                    <path d="M3.56099603,24.7346419 L44.6130196,1.3949213 C47.8071348,-0.465244208 51.7430571,-0.465244208 54.9371723,1.39654448 L137.309944,49.3842696 C140.896685,51.47655 140.896685,56.6999467 137.309944,58.7906039 L94.3575421,83.443478 C90.8367743,85.4968021 86.4969614,85.4968021 82.9761936,83.443478 L3.55938691,37.1795712 C-1.18753492,34.4120474 -1.18592579,27.5005425 3.56099603,24.7346419"
                          id="Fill-3" fill="#E6E6E3"></path>
                    <polygon id="Fill-5" fill="#333333"
                             points="5.21276596 33.9784684 57.221595 5.26446281 127.340426 46.0056918 75.5911167 74.4545455"></polygon>
                    <polygon id="Fill-7" fill="url(#linearGradient-2)"
                             points="8.93617021 34.3219896 56.8420278 7.52066116 122.87234 46.3974571 75.2092355 72.9504132"></polygon>
                    <path d="M31.2765957,16.1694215 C31.2765957,16.7923796 30.6098292,17.2975207 29.787234,17.2975207 C28.9646389,17.2975207 28.2978723,16.7923796 28.2978723,16.1694215 C28.2978723,15.5464633 28.9646389,15.0413223 29.787234,15.0413223 C30.6098292,15.0413223 31.2765957,15.5464633 31.2765957,16.1694215"
                          id="Fill-9" fill="#333333"></path>
                    <path d="M117.659574,64.3024825 C117.659574,67.416826 114.491495,69.9421488 110.584305,69.9421488 C106.677114,69.9421488 103.510638,67.416826 103.510638,64.3024825 C103.510638,61.1864798 106.677114,58.661157 110.584305,58.661157 C114.491495,58.661157 117.659574,61.1864798 117.659574,64.3024825"
                          id="Fill-11" fill="#BEBEBE"></path>
                    <path d="M117.659574,64.3024825 C117.659574,67.416826 114.491495,69.9421488 110.584305,69.9421488 C106.677114,69.9421488 103.510638,67.416826 103.510638,64.3024825 C103.510638,61.1864798 106.677114,58.661157 110.584305,58.661157 C114.491495,58.661157 117.659574,61.1864798 117.659574,64.3024825"
                          id="Fill-13" fill="#BEBEBE"></path>
                    <path d="M116.170213,64.3024494 C116.170213,66.5868883 113.668974,68.4380165 110.584278,68.4380165 C107.501239,68.4380165 105,66.5868883 105,64.3024494 C105,62.0164175 107.501239,60.1652893 110.584278,60.1652893 C113.668974,60.1652893 116.170213,62.0164175 116.170213,64.3024494"
                          id="Fill-15" fill="#E6E6E3"></path>
                    <path d="M38.4577088,11.6412135 L33.6322202,14.2270571 C33.3846723,14.3599589 33.0676075,14.2729984 32.9302693,14.0318062 L32.8302328,13.8578852 C32.6928946,13.616693 32.7827579,13.3115109 33.0320013,13.1786091 L37.8574899,10.5911248 C38.1050378,10.4582229 38.4221026,10.5451834 38.5594408,10.7863756 L38.6594773,10.9619373 C38.7968155,11.2014888 38.7052567,11.5083116 38.4577088,11.6412135"
                          id="Fill-17" fill="#BEBEBE"></path>
                    <path d="M25.7977859,19.1618747 L20.9739929,21.7477182 C20.7247494,21.8806201 20.4093802,21.7936596 20.2703464,21.5524673 L20.17031,21.3785464 C20.0329717,21.1373541 20.1245306,20.8321721 20.3720785,20.6992702 L25.197567,18.1117859 C25.4451149,17.9788841 25.7621797,18.0658445 25.8995179,18.3070368 L25.9995544,18.4825985 C26.1368926,18.72215 26.0470293,19.0289728 25.7977859,19.1618747"
                          id="Fill-19" fill="#BEBEBE"></path>
                    <path d="M68.6451789,38.3822354 C65.8011474,40.1228442 64.4352427,42.6521153 64.8648935,45.2760913 C64.9867347,46.0239326 66.0496394,46.6280839 67.2407981,46.6280839 C67.7922901,46.6297167 68.2748456,46.5007222 68.6227345,46.2884529 C69.0251313,46.0418938 69.2463693,45.6875673 69.1838455,45.2875212 C68.8952741,43.4489419 69.8700042,41.6724106 71.880385,40.4461467 C73.8891627,39.2182501 76.758845,38.6500213 79.7215115,38.8688221 C80.3611781,38.9161745 80.9399241,38.7855472 81.3423209,38.540621 C81.6902097,38.3283516 81.9050351,38.0295416 81.9146542,37.686645 C81.9322891,36.945335 80.9735907,36.2660731 79.7728131,36.1713683 C75.5596705,35.8431672 71.4892105,36.6432594 68.6451789,38.3822354"
                          id="Fill-21" fill="#FFFFFF"></path>
                    <path d="M60.6318828,33.827256 C55.9356787,36.6944476 53.7241876,40.8723553 54.521353,45.2468705 C54.6595712,46.0070859 55.7444233,46.6247609 56.9449929,46.6280376 C57.4978657,46.6313144 57.9800222,46.5035196 58.3255676,46.2905282 C58.7305791,46.0431306 58.9491567,45.6777684 58.8768332,45.2714464 C58.2419939,41.6981065 60.0597238,38.2656686 63.902511,35.9096563 C67.7469054,33.5552824 73.2483108,32.4788567 78.9634724,32.9605449 C79.6159908,33.0162503 80.2026145,32.8868171 80.607626,32.6377811 C80.9531715,32.4264281 81.1653203,32.1249634 81.1701419,31.7776236 C81.179785,31.020685 80.2042217,30.3227286 78.994009,30.2211481 C72.020419,29.6280491 65.328087,30.9600644 60.6318828,33.827256"
                          id="Fill-23" fill="#FFFFFF"></path>
                    <path d="M78.2313936,24.9554443 C69.0161653,24.2809035 60.2140389,26.1239023 53.9082059,29.7923171 C47.6023728,33.4623303 44.5772447,38.7931205 45.6316995,44.4979451 C45.769936,45.2412186 46.8565389,45.8598141 48.060482,45.8757985 C48.6214649,45.8821922 49.1101147,45.7575141 49.4573133,45.5481187 C49.8559487,45.3067546 50.0713403,44.9534998 50.0006147,44.5570873 C49.1165443,39.6291035 51.7124965,34.9680588 57.1374739,31.7647894 C62.5624514,28.56152 70.2329676,27.0094369 78.2474676,27.6216386 C78.8936427,27.6711901 79.4706996,27.5449135 79.8709424,27.3051479 C80.2181409,27.0957525 80.4287104,26.7968446 80.4254956,26.4531805 C80.419066,25.7147022 79.4369442,25.0449568 78.2313936,24.9554443"
                          id="Fill-25" fill="#FFFFFF"></path>
                    <path d="M75.370815,43.3544886 C74.1009192,44.0580761 74.1845945,45.2646602 75.5348842,46.0290328 C76.885174,46.7934054 78.9869008,46.8268372 80.2518745,46.126289 C81.5168482,45.4272604 81.4741902,44.2586669 80.1288226,43.4897355 C78.7834549,42.7223237 76.6407108,42.6509012 75.370815,43.3544886"
                          id="Fill-27" fill="#FFFFFF"></path>
                </g>
            </g>
        </g>
    </g>
</svg>