<?xml version="1.0" standalone="no"?>
<!DOCTYPE svg PUBLIC "-//W3C//DTD SVG 20010904//EN"
 "http://www.w3.org/TR/2001/REC-SVG-20010904/DTD/svg10.dtd">
<svg version="1.0" xmlns="http://www.w3.org/2000/svg"
 width="1521.000000pt" height="1521.000000pt" viewBox="0 0 1521.000000 1521.000000"
 preserveAspectRatio="xMidYMid meet">
<metadata>
Created by potrace 1.11, written by Peter Selinger 2001-2013
</metadata>
<g transform="translate(0.000000,1521.000000) scale(0.100000,-0.100000)"
fill="#000000" stroke="none">
<path d="M785 14240 c-49 -11 -110 -27 -135 -36 -280 -104 -498 -326 -595
-606 -69 -201 -68 -430 3 -638 33 -96 75 -171 465 -840 50 -85 95 -164 101
-175 11 -20 197 -342 219 -380 6 -11 29 -48 49 -82 21 -34 38 -65 38 -68 0 -2
18 -34 40 -70 22 -36 40 -67 40 -70 0 -2 32 -56 70 -121 39 -64 70 -118 70
-119 0 -3 99 -175 210 -365 40 -69 82 -141 93 -160 11 -19 130 -226 265 -460
300 -521 249 -432 447 -775 92 -159 176 -305 186 -322 31 -54 52 -90 143 -247
47 -82 86 -151 86 -154 0 -3 6 -13 14 -21 7 -9 27 -41 43 -71 17 -30 39 -71
50 -90 186 -323 329 -570 342 -590 8 -14 21 -34 26 -45 14 -25 387 -671 580
-1005 78 -135 153 -265 167 -290 52 -93 280 -485 288 -495 4 -5 21 -35 37 -65
16 -30 96 -170 178 -310 140 -241 159 -274 204 -352 10 -18 44 -78 76 -133 32
-55 80 -138 107 -185 26 -47 53 -92 58 -100 5 -8 18 -31 29 -50 10 -19 74
-129 141 -245 68 -115 130 -223 138 -240 8 -16 23 -41 32 -55 9 -14 28 -46 42
-71 22 -39 587 -1018 646 -1119 11 -19 31 -53 43 -75 41 -74 44 -80 60 -105
20 -31 204 -349 237 -410 13 -25 37 -65 52 -90 15 -25 114 -196 220 -380 106
-184 202 -351 214 -370 12 -19 28 -47 35 -62 8 -15 22 -37 33 -47 10 -11 18
-23 18 -27 0 -12 107 -133 155 -174 189 -163 410 -241 671 -235 67 1 125 5
130 8 5 3 25 8 44 11 19 3 62 14 95 25 233 75 430 237 555 456 61 107 151 262
160 275 6 8 13 21 17 29 6 13 190 334 212 371 8 12 332 573 366 632 6 9 64
111 130 225 66 114 133 230 148 258 16 27 50 86 76 130 26 44 51 87 54 95 4 8
16 29 27 45 11 17 23 37 27 45 7 15 125 218 231 400 31 52 57 97 57 100 0 3 8
16 17 30 20 32 536 925 637 1103 13 23 47 83 76 132 65 110 448 773 483 835
14 25 34 61 45 80 10 19 23 40 27 45 4 6 18 28 30 50 54 97 249 434 273 472
15 24 27 45 27 48 0 2 27 50 60 106 33 55 60 102 60 104 0 2 26 47 58 102 48
81 246 422 312 538 10 17 31 53 48 81 16 28 44 76 60 105 17 30 119 207 227
394 109 187 209 360 223 385 14 25 48 86 77 135 29 50 62 106 73 125 10 19
111 193 222 385 112 193 213 368 226 391 34 60 303 527 313 544 8 13 84 144
202 349 15 25 67 116 116 201 121 208 376 649 394 680 8 14 21 33 29 44 8 10
15 21 14 25 -1 3 4 15 11 26 11 18 281 484 332 575 11 19 44 76 73 125 29 50
62 108 75 130 12 22 54 94 92 160 163 279 203 394 208 605 7 261 -80 490 -261
688 -135 149 -308 245 -520 292 -88 19 -185 19 -6699 19 -6444 0 -6612 -1
-6700 -19z"/>
</g>
</svg>
